<svg xmlns="http://www.w3.org/2000/svg" xmlns:xlink="http://www.w3.org/1999/xlink" width="500" zoomAndPan="magnify" viewBox="0 0 375 172.499995" height="230" preserveAspectRatio="xMidYMid meet" version="1.0"><defs><filter x="0%" y="0%" width="100%" height="100%" id="cd1d2bddba"><feColorMatrix values="0 0 0 0 1 0 0 0 0 1 0 0 0 0 1 0 0 0 1 0" color-interpolation-filters="sRGB"/></filter><g/><clipPath id="b998e5994f"><path d="M 0.542969 1 L 374 1 L 374 172 L 0.542969 172 Z M 0.542969 1 " clip-rule="nonzero"/></clipPath><mask id="ccbc3da822"><g filter="url(#cd1d2bddba)"><rect x="-37.5" width="450" fill="#000000" y="-17.249999" height="206.999994" fill-opacity="0.5"/></g></mask><clipPath id="9789d7cf51"><path d="M 0.542969 138 L 6 138 L 6 144 L 0.542969 144 Z M 0.542969 138 " clip-rule="nonzero"/></clipPath><clipPath id="cbdd2add0b"><path d="M 312 0.625 L 318 0.625 L 318 6 L 312 6 Z M 312 0.625 " clip-rule="nonzero"/></clipPath><clipPath id="79b36ddc15"><path d="M 308 159 L 313 159 L 313 164.132812 L 308 164.132812 Z M 308 159 " clip-rule="nonzero"/></clipPath><clipPath id="49d14e8de1"><path d="M 338 0.625 L 343 0.625 L 343 6 L 338 6 Z M 338 0.625 " clip-rule="nonzero"/></clipPath><clipPath id="bf604b69e7"><path d="M 10 24 L 59 24 L 59 164.132812 L 10 164.132812 Z M 10 24 " clip-rule="nonzero"/></clipPath><clipPath id="ed05773956"><rect x="0" width="374" y="0" height="171"/></clipPath><mask id="12f0e70ac8"><g filter="url(#cd1d2bddba)"><rect x="-37.5" width="450" fill="#000000" y="-17.249999" height="206.999994" fill-opacity="0.5"/></g></mask><clipPath id="91d94b8178"><path d="M 13 133 L 17 133 L 17 138 L 13 138 Z M 13 133 " clip-rule="nonzero"/></clipPath><clipPath id="ea784dd4f9"><path d="M 9.636719 138.925781 L 11.039062 133.945312 L 16.019531 135.351562 L 14.613281 140.332031 Z M 9.636719 138.925781 " clip-rule="nonzero"/></clipPath><clipPath id="789b6d61bd"><path d="M -10.597656 173.421875 L 90.480469 -185.15625 L 273.753906 -133.496094 L 172.679688 225.082031 Z M -10.597656 173.421875 " clip-rule="nonzero"/></clipPath><clipPath id="d0b5ad7a33"><path d="M 10 134 L 16 134 L 16 140 L 10 140 Z M 10 134 " clip-rule="nonzero"/></clipPath><clipPath id="a2a2705fd9"><path d="M 9.636719 138.925781 L 11.039062 133.945312 L 16.019531 135.351562 L 14.613281 140.332031 Z M 9.636719 138.925781 " clip-rule="nonzero"/></clipPath><clipPath id="ed9bd9ded8"><path d="M -10.597656 173.421875 L 90.480469 -185.15625 L 273.753906 -133.496094 L 172.679688 225.082031 Z M -10.597656 173.421875 " clip-rule="nonzero"/></clipPath><clipPath id="ad7dce10a3"><rect x="0" width="192" y="0" height="142"/></clipPath></defs><g clip-path="url(#b998e5994f)"><g mask="url(#ccbc3da822)"><g transform="matrix(1, 0, 0, 1, 0.000000000000000111, 1)"><g clip-path="url(#ed05773956)"><path fill="#051d40" d="M 182.117188 92.125 L 129.816406 66.339844 L 119.667969 75.34375 L 119.601562 75.328125 L 72.78125 65.308594 L 89.128906 44.730469 L 41.867188 13.6875 L 42.007812 13.46875 L 89.511719 44.667969 L 89.421875 44.78125 L 73.246094 65.144531 L 119.589844 75.058594 L 129.773438 66.03125 L 129.855469 66.066406 L 182.234375 91.890625 Z M 182.117188 92.125 " fill-opacity="1" fill-rule="nonzero"/><path fill="#051d40" d="M 91.328125 44.792969 C 91.328125 45.097656 91.269531 45.390625 91.152344 45.671875 C 91.035156 45.953125 90.871094 46.203125 90.652344 46.417969 C 90.4375 46.632812 90.191406 46.796875 89.910156 46.914062 C 89.625 47.03125 89.332031 47.089844 89.027344 47.089844 C 88.722656 47.089844 88.429688 47.03125 88.148438 46.914062 C 87.867188 46.796875 87.621094 46.632812 87.40625 46.417969 C 87.1875 46.203125 87.023438 45.953125 86.90625 45.671875 C 86.789062 45.390625 86.730469 45.097656 86.730469 44.792969 C 86.730469 44.488281 86.789062 44.195312 86.90625 43.914062 C 87.023438 43.632812 87.1875 43.382812 87.40625 43.167969 C 87.621094 42.953125 87.867188 42.785156 88.148438 42.667969 C 88.429688 42.550781 88.722656 42.496094 89.027344 42.496094 C 89.332031 42.496094 89.625 42.550781 89.910156 42.667969 C 90.191406 42.785156 90.4375 42.953125 90.652344 43.167969 C 90.871094 43.382812 91.035156 43.632812 91.152344 43.914062 C 91.269531 44.195312 91.328125 44.488281 91.328125 44.792969 Z M 91.328125 44.792969 " fill-opacity="1" fill-rule="nonzero"/><path fill="#051d40" d="M 106.148438 44.792969 C 106.148438 45.097656 106.089844 45.390625 105.972656 45.671875 C 105.855469 45.953125 105.691406 46.203125 105.476562 46.417969 C 105.261719 46.632812 105.011719 46.796875 104.730469 46.914062 C 104.449219 47.03125 104.15625 47.089844 103.851562 47.089844 C 103.546875 47.089844 103.253906 47.03125 102.972656 46.914062 C 102.691406 46.796875 102.441406 46.632812 102.226562 46.417969 C 102.011719 46.203125 101.84375 45.953125 101.726562 45.671875 C 101.613281 45.390625 101.554688 45.097656 101.554688 44.792969 C 101.554688 44.488281 101.613281 44.195312 101.726562 43.914062 C 101.84375 43.632812 102.011719 43.382812 102.226562 43.167969 C 102.441406 42.953125 102.691406 42.785156 102.972656 42.667969 C 103.253906 42.550781 103.546875 42.496094 103.851562 42.496094 C 104.15625 42.496094 104.449219 42.550781 104.730469 42.667969 C 105.011719 42.785156 105.261719 42.953125 105.476562 43.167969 C 105.691406 43.382812 105.855469 43.632812 105.972656 43.914062 C 106.089844 44.195312 106.148438 44.488281 106.148438 44.792969 Z M 106.148438 44.792969 " fill-opacity="1" fill-rule="nonzero"/><path fill="#051d40" d="M 117.136719 60.046875 C 117.136719 60.351562 117.078125 60.644531 116.960938 60.925781 C 116.84375 61.207031 116.679688 61.457031 116.464844 61.671875 C 116.246094 61.886719 116 62.050781 115.71875 62.167969 C 115.4375 62.285156 115.144531 62.34375 114.839844 62.34375 C 114.535156 62.34375 114.242188 62.285156 113.960938 62.167969 C 113.675781 62.050781 113.429688 61.886719 113.214844 61.671875 C 113 61.457031 112.832031 61.207031 112.714844 60.925781 C 112.597656 60.644531 112.539062 60.351562 112.539062 60.046875 C 112.539062 59.742188 112.597656 59.449219 112.714844 59.167969 C 112.832031 58.886719 113 58.636719 113.214844 58.421875 C 113.429688 58.207031 113.675781 58.039062 113.960938 57.921875 C 114.242188 57.808594 114.535156 57.75 114.839844 57.75 C 115.144531 57.75 115.4375 57.808594 115.71875 57.921875 C 116 58.039062 116.246094 58.207031 116.464844 58.421875 C 116.679688 58.636719 116.84375 58.886719 116.960938 59.167969 C 117.078125 59.449219 117.136719 59.742188 117.136719 60.046875 Z M 117.136719 60.046875 " fill-opacity="1" fill-rule="nonzero"/><path fill="#051d40" d="M 60.921875 24.746094 C 60.921875 25.050781 60.863281 25.34375 60.746094 25.625 C 60.628906 25.90625 60.464844 26.15625 60.25 26.371094 C 60.03125 26.585938 59.785156 26.75 59.503906 26.867188 C 59.222656 26.984375 58.929688 27.042969 58.625 27.042969 C 58.320312 27.042969 58.027344 26.984375 57.746094 26.867188 C 57.460938 26.75 57.214844 26.585938 57 26.371094 C 56.785156 26.15625 56.617188 25.90625 56.5 25.625 C 56.382812 25.34375 56.324219 25.050781 56.324219 24.746094 C 56.324219 24.441406 56.382812 24.148438 56.5 23.867188 C 56.617188 23.585938 56.785156 23.335938 57 23.121094 C 57.214844 22.90625 57.460938 22.738281 57.746094 22.621094 C 58.027344 22.507812 58.320312 22.449219 58.625 22.449219 C 58.929688 22.449219 59.222656 22.507812 59.503906 22.621094 C 59.785156 22.738281 60.03125 22.90625 60.25 23.121094 C 60.464844 23.335938 60.628906 23.585938 60.746094 23.867188 C 60.863281 24.148438 60.921875 24.441406 60.921875 24.746094 Z M 60.921875 24.746094 " fill-opacity="1" fill-rule="nonzero"/><path fill="#051d40" d="M 66.316406 15.25 C 66.316406 15.554688 66.257812 15.847656 66.140625 16.128906 C 66.023438 16.410156 65.859375 16.65625 65.644531 16.875 C 65.429688 17.089844 65.179688 17.253906 64.898438 17.371094 C 64.617188 17.488281 64.324219 17.546875 64.019531 17.546875 C 63.714844 17.546875 63.421875 17.488281 63.140625 17.371094 C 62.859375 17.253906 62.609375 17.089844 62.394531 16.875 C 62.179688 16.65625 62.011719 16.410156 61.894531 16.128906 C 61.78125 15.847656 61.722656 15.554688 61.722656 15.25 C 61.722656 14.945312 61.78125 14.652344 61.894531 14.371094 C 62.011719 14.085938 62.179688 13.839844 62.394531 13.625 C 62.609375 13.410156 62.859375 13.242188 63.140625 13.125 C 63.421875 13.007812 63.714844 12.949219 64.019531 12.949219 C 64.324219 12.949219 64.617188 13.007812 64.898438 13.125 C 65.179688 13.242188 65.429688 13.410156 65.644531 13.625 C 65.859375 13.839844 66.023438 14.085938 66.140625 14.371094 C 66.257812 14.652344 66.316406 14.945312 66.316406 15.25 Z M 66.316406 15.25 " fill-opacity="1" fill-rule="nonzero"/><path fill="#051d40" d="M 44.234375 13.578125 C 44.234375 13.882812 44.175781 14.175781 44.0625 14.457031 C 43.945312 14.738281 43.777344 14.988281 43.5625 15.203125 C 43.347656 15.417969 43.097656 15.585938 42.816406 15.703125 C 42.535156 15.816406 42.242188 15.875 41.9375 15.875 C 41.632812 15.875 41.339844 15.816406 41.058594 15.703125 C 40.777344 15.585938 40.527344 15.417969 40.3125 15.203125 C 40.097656 14.988281 39.933594 14.738281 39.816406 14.457031 C 39.699219 14.175781 39.640625 13.882812 39.640625 13.578125 C 39.640625 13.273438 39.699219 12.980469 39.816406 12.699219 C 39.933594 12.417969 40.097656 12.167969 40.3125 11.953125 C 40.527344 11.738281 40.777344 11.574219 41.058594 11.457031 C 41.339844 11.339844 41.632812 11.28125 41.9375 11.28125 C 42.242188 11.28125 42.535156 11.339844 42.816406 11.457031 C 43.097656 11.574219 43.347656 11.738281 43.5625 11.953125 C 43.777344 12.167969 43.945312 12.417969 44.0625 12.699219 C 44.175781 12.980469 44.234375 13.273438 44.234375 13.578125 Z M 44.234375 13.578125 " fill-opacity="1" fill-rule="nonzero"/><path fill="#051d40" d="M 12.773438 44.078125 C 12.773438 44.382812 12.71875 44.675781 12.601562 44.957031 C 12.484375 45.238281 12.316406 45.488281 12.101562 45.703125 C 11.886719 45.917969 11.636719 46.085938 11.355469 46.203125 C 11.074219 46.320312 10.78125 46.375 10.476562 46.375 C 10.171875 46.375 9.878906 46.320312 9.597656 46.203125 C 9.316406 46.085938 9.070312 45.917969 8.851562 45.703125 C 8.636719 45.488281 8.472656 45.238281 8.355469 44.957031 C 8.238281 44.675781 8.179688 44.382812 8.179688 44.078125 C 8.179688 43.773438 8.238281 43.480469 8.355469 43.199219 C 8.472656 42.917969 8.636719 42.671875 8.851562 42.453125 C 9.070312 42.238281 9.316406 42.074219 9.597656 41.957031 C 9.878906 41.839844 10.171875 41.78125 10.476562 41.78125 C 10.78125 41.78125 11.074219 41.839844 11.355469 41.957031 C 11.636719 42.074219 11.886719 42.238281 12.101562 42.453125 C 12.316406 42.671875 12.484375 42.917969 12.601562 43.199219 C 12.71875 43.480469 12.773438 43.773438 12.773438 44.078125 Z M 12.773438 44.078125 " fill-opacity="1" fill-rule="nonzero"/><path fill="#051d40" d="M 14.308594 77.496094 C 14.308594 77.800781 14.25 78.09375 14.136719 78.375 C 14.019531 78.65625 13.851562 78.902344 13.636719 79.121094 C 13.421875 79.335938 13.171875 79.5 12.890625 79.617188 C 12.609375 79.734375 12.316406 79.792969 12.011719 79.792969 C 11.707031 79.792969 11.414062 79.734375 11.132812 79.617188 C 10.851562 79.5 10.601562 79.335938 10.386719 79.121094 C 10.171875 78.902344 10.007812 78.65625 9.890625 78.375 C 9.773438 78.09375 9.714844 77.800781 9.714844 77.496094 C 9.714844 77.191406 9.773438 76.898438 9.890625 76.617188 C 10.007812 76.332031 10.171875 76.085938 10.386719 75.871094 C 10.601562 75.65625 10.851562 75.488281 11.132812 75.371094 C 11.414062 75.253906 11.707031 75.195312 12.011719 75.195312 C 12.316406 75.195312 12.609375 75.253906 12.890625 75.371094 C 13.171875 75.488281 13.421875 75.65625 13.636719 75.871094 C 13.851562 76.085938 14.019531 76.332031 14.136719 76.617188 C 14.25 76.898438 14.308594 77.191406 14.308594 77.496094 Z M 14.308594 77.496094 " fill-opacity="1" fill-rule="nonzero"/><g clip-path="url(#9789d7cf51)"><path fill="#051d40" d="M 5.148438 141.238281 C 5.148438 141.542969 5.09375 141.835938 4.976562 142.117188 C 4.859375 142.398438 4.691406 142.648438 4.476562 142.863281 C 4.261719 143.078125 4.011719 143.246094 3.730469 143.363281 C 3.449219 143.480469 3.15625 143.535156 2.851562 143.535156 C 2.546875 143.535156 2.253906 143.480469 1.972656 143.363281 C 1.691406 143.246094 1.445312 143.078125 1.226562 142.863281 C 1.011719 142.648438 0.847656 142.398438 0.730469 142.117188 C 0.613281 141.835938 0.554688 141.542969 0.554688 141.238281 C 0.554688 140.933594 0.613281 140.640625 0.730469 140.359375 C 0.847656 140.078125 1.011719 139.828125 1.226562 139.613281 C 1.445312 139.398438 1.691406 139.234375 1.972656 139.117188 C 2.253906 139 2.546875 138.941406 2.851562 138.941406 C 3.15625 138.941406 3.449219 139 3.730469 139.117188 C 4.011719 139.234375 4.261719 139.398438 4.476562 139.613281 C 4.691406 139.828125 4.859375 140.078125 4.976562 140.359375 C 5.09375 140.640625 5.148438 140.933594 5.148438 141.238281 Z M 5.148438 141.238281 " fill-opacity="1" fill-rule="nonzero"/></g><path fill="#051d40" d="M 19.96875 147.832031 C 19.96875 148.136719 19.910156 148.429688 19.792969 148.710938 C 19.675781 148.992188 19.511719 149.242188 19.296875 149.457031 C 19.082031 149.671875 18.832031 149.839844 18.550781 149.957031 C 18.269531 150.074219 17.976562 150.128906 17.671875 150.128906 C 17.367188 150.128906 17.074219 150.074219 16.792969 149.957031 C 16.511719 149.839844 16.261719 149.671875 16.046875 149.457031 C 15.832031 149.242188 15.664062 148.992188 15.546875 148.710938 C 15.433594 148.429688 15.375 148.136719 15.375 147.832031 C 15.375 147.527344 15.433594 147.234375 15.546875 146.953125 C 15.664062 146.671875 15.832031 146.425781 16.046875 146.207031 C 16.261719 145.992188 16.511719 145.828125 16.792969 145.710938 C 17.074219 145.59375 17.367188 145.535156 17.671875 145.535156 C 17.976562 145.535156 18.269531 145.59375 18.550781 145.710938 C 18.832031 145.828125 19.082031 145.992188 19.296875 146.207031 C 19.511719 146.425781 19.675781 146.671875 19.792969 146.953125 C 19.910156 147.234375 19.96875 147.527344 19.96875 147.832031 Z M 19.96875 147.832031 " fill-opacity="1" fill-rule="nonzero"/><path fill="#051d40" d="M 39.679688 62.34375 C 39.679688 62.648438 39.621094 62.941406 39.503906 63.222656 C 39.386719 63.503906 39.222656 63.753906 39.007812 63.96875 C 38.789062 64.183594 38.542969 64.351562 38.261719 64.46875 C 37.980469 64.585938 37.6875 64.640625 37.382812 64.640625 C 37.078125 64.640625 36.785156 64.585938 36.503906 64.46875 C 36.222656 64.351562 35.972656 64.183594 35.757812 63.96875 C 35.542969 63.753906 35.375 63.503906 35.257812 63.222656 C 35.140625 62.941406 35.085938 62.648438 35.085938 62.34375 C 35.085938 62.039062 35.140625 61.746094 35.257812 61.464844 C 35.375 61.183594 35.542969 60.933594 35.757812 60.71875 C 35.972656 60.503906 36.222656 60.339844 36.503906 60.222656 C 36.785156 60.105469 37.078125 60.046875 37.382812 60.046875 C 37.6875 60.046875 37.980469 60.105469 38.261719 60.222656 C 38.542969 60.339844 38.789062 60.503906 39.007812 60.71875 C 39.222656 60.933594 39.386719 61.183594 39.503906 61.464844 C 39.621094 61.746094 39.679688 62.039062 39.679688 62.34375 Z M 39.679688 62.34375 " fill-opacity="1" fill-rule="nonzero"/><path fill="#051d40" d="M 39.679688 104.449219 C 39.679688 104.753906 39.621094 105.050781 39.503906 105.332031 C 39.386719 105.613281 39.222656 105.859375 39.007812 106.074219 C 38.789062 106.292969 38.542969 106.457031 38.261719 106.574219 C 37.980469 106.691406 37.6875 106.75 37.382812 106.75 C 37.078125 106.75 36.785156 106.691406 36.503906 106.574219 C 36.222656 106.457031 35.972656 106.292969 35.757812 106.074219 C 35.542969 105.859375 35.375 105.613281 35.257812 105.332031 C 35.140625 105.050781 35.085938 104.753906 35.085938 104.449219 C 35.085938 104.144531 35.140625 103.851562 35.257812 103.570312 C 35.375 103.289062 35.542969 103.042969 35.757812 102.828125 C 35.972656 102.609375 36.222656 102.445312 36.503906 102.328125 C 36.785156 102.210938 37.078125 102.152344 37.382812 102.152344 C 37.6875 102.152344 37.980469 102.210938 38.261719 102.328125 C 38.542969 102.445312 38.789062 102.609375 39.007812 102.828125 C 39.222656 103.042969 39.386719 103.289062 39.503906 103.570312 C 39.621094 103.851562 39.679688 104.144531 39.679688 104.449219 Z M 39.679688 104.449219 " fill-opacity="1" fill-rule="nonzero"/><path fill="#051d40" d="M 48.082031 158.359375 C 48.082031 158.664062 48.023438 158.957031 47.90625 159.238281 C 47.789062 159.519531 47.625 159.769531 47.410156 159.984375 C 47.195312 160.199219 46.945312 160.367188 46.664062 160.484375 C 46.382812 160.597656 46.089844 160.65625 45.785156 160.65625 C 45.480469 160.65625 45.1875 160.597656 44.90625 160.484375 C 44.625 160.367188 44.375 160.199219 44.160156 159.984375 C 43.945312 159.769531 43.777344 159.519531 43.660156 159.238281 C 43.542969 158.957031 43.488281 158.664062 43.488281 158.359375 C 43.488281 158.054688 43.542969 157.761719 43.660156 157.480469 C 43.777344 157.199219 43.945312 156.949219 44.160156 156.734375 C 44.375 156.519531 44.625 156.355469 44.90625 156.238281 C 45.1875 156.121094 45.480469 156.0625 45.785156 156.0625 C 46.089844 156.0625 46.382812 156.121094 46.664062 156.238281 C 46.945312 156.355469 47.195312 156.519531 47.410156 156.734375 C 47.625 156.949219 47.789062 157.199219 47.90625 157.480469 C 48.023438 157.761719 48.082031 158.054688 48.082031 158.359375 Z M 48.082031 158.359375 " fill-opacity="1" fill-rule="nonzero"/><path fill="#051d40" d="M 101.542969 130.015625 C 101.542969 130.320312 101.484375 130.613281 101.371094 130.894531 C 101.253906 131.175781 101.085938 131.425781 100.871094 131.640625 C 100.65625 131.855469 100.40625 132.023438 100.125 132.140625 C 99.84375 132.257812 99.550781 132.3125 99.246094 132.3125 C 98.941406 132.3125 98.648438 132.257812 98.367188 132.140625 C 98.085938 132.023438 97.835938 131.855469 97.621094 131.640625 C 97.40625 131.425781 97.242188 131.175781 97.125 130.894531 C 97.007812 130.613281 96.949219 130.320312 96.949219 130.015625 C 96.949219 129.710938 97.007812 129.417969 97.125 129.136719 C 97.242188 128.855469 97.40625 128.609375 97.621094 128.390625 C 97.835938 128.175781 98.085938 128.011719 98.367188 127.894531 C 98.648438 127.777344 98.941406 127.71875 99.246094 127.71875 C 99.550781 127.71875 99.84375 127.777344 100.125 127.894531 C 100.40625 128.011719 100.65625 128.175781 100.871094 128.390625 C 101.085938 128.609375 101.253906 128.855469 101.371094 129.136719 C 101.484375 129.417969 101.542969 129.710938 101.542969 130.015625 Z M 101.542969 130.015625 " fill-opacity="1" fill-rule="nonzero"/><path fill="#051d40" d="M 125.714844 85.609375 C 125.714844 85.914062 125.65625 86.207031 125.539062 86.488281 C 125.421875 86.769531 125.257812 87.019531 125.042969 87.234375 C 124.828125 87.449219 124.578125 87.613281 124.296875 87.730469 C 124.015625 87.847656 123.722656 87.90625 123.417969 87.90625 C 123.113281 87.90625 122.820312 87.847656 122.539062 87.730469 C 122.257812 87.613281 122.007812 87.449219 121.792969 87.234375 C 121.578125 87.019531 121.410156 86.769531 121.292969 86.488281 C 121.179688 86.207031 121.121094 85.914062 121.121094 85.609375 C 121.121094 85.304688 121.179688 85.011719 121.292969 84.730469 C 121.410156 84.449219 121.578125 84.199219 121.792969 83.984375 C 122.007812 83.769531 122.257812 83.601562 122.539062 83.484375 C 122.820312 83.367188 123.113281 83.3125 123.417969 83.3125 C 123.722656 83.3125 124.015625 83.367188 124.296875 83.484375 C 124.578125 83.601562 124.828125 83.769531 125.042969 83.984375 C 125.257812 84.199219 125.421875 84.449219 125.539062 84.730469 C 125.65625 85.011719 125.714844 85.304688 125.714844 85.609375 Z M 125.714844 85.609375 " fill-opacity="1" fill-rule="nonzero"/><path fill="#051d40" d="M 92.335938 85.609375 C 92.335938 85.914062 92.277344 86.207031 92.160156 86.488281 C 92.046875 86.769531 91.878906 87.019531 91.664062 87.234375 C 91.449219 87.449219 91.199219 87.613281 90.917969 87.730469 C 90.636719 87.847656 90.34375 87.90625 90.039062 87.90625 C 89.734375 87.90625 89.441406 87.847656 89.160156 87.730469 C 88.878906 87.613281 88.628906 87.449219 88.414062 87.234375 C 88.199219 87.019531 88.03125 86.769531 87.917969 86.488281 C 87.800781 86.207031 87.742188 85.914062 87.742188 85.609375 C 87.742188 85.304688 87.800781 85.011719 87.917969 84.730469 C 88.03125 84.449219 88.199219 84.199219 88.414062 83.984375 C 88.628906 83.769531 88.878906 83.601562 89.160156 83.484375 C 89.441406 83.367188 89.734375 83.3125 90.039062 83.3125 C 90.34375 83.3125 90.636719 83.367188 90.917969 83.484375 C 91.199219 83.601562 91.449219 83.769531 91.664062 83.984375 C 91.878906 84.199219 92.046875 84.449219 92.160156 84.730469 C 92.277344 85.011719 92.335938 85.304688 92.335938 85.609375 Z M 92.335938 85.609375 " fill-opacity="1" fill-rule="nonzero"/><path fill="#051d40" d="M 84.421875 120.855469 C 84.421875 121.160156 84.367188 121.457031 84.25 121.738281 C 84.132812 122.019531 83.964844 122.265625 83.75 122.480469 C 83.535156 122.699219 83.285156 122.863281 83.003906 122.980469 C 82.722656 123.097656 82.429688 123.15625 82.125 123.15625 C 81.820312 123.15625 81.527344 123.097656 81.246094 122.980469 C 80.964844 122.863281 80.71875 122.699219 80.5 122.480469 C 80.285156 122.265625 80.121094 122.019531 80.003906 121.738281 C 79.886719 121.457031 79.828125 121.160156 79.828125 120.855469 C 79.828125 120.550781 79.886719 120.257812 80.003906 119.976562 C 80.121094 119.695312 80.285156 119.449219 80.5 119.234375 C 80.71875 119.015625 80.964844 118.851562 81.246094 118.734375 C 81.527344 118.617188 81.820312 118.558594 82.125 118.558594 C 82.429688 118.558594 82.722656 118.617188 83.003906 118.734375 C 83.285156 118.851562 83.535156 119.015625 83.75 119.234375 C 83.964844 119.449219 84.132812 119.695312 84.25 119.976562 C 84.367188 120.257812 84.421875 120.550781 84.421875 120.855469 Z M 84.421875 120.855469 " fill-opacity="1" fill-rule="nonzero"/><path fill="#051d40" d="M 134.445312 94.625 C 134.445312 94.929688 134.386719 95.222656 134.269531 95.503906 C 134.152344 95.785156 133.984375 96.035156 133.769531 96.25 C 133.554688 96.464844 133.308594 96.628906 133.023438 96.746094 C 132.742188 96.863281 132.449219 96.921875 132.144531 96.921875 C 131.839844 96.921875 131.546875 96.863281 131.265625 96.746094 C 130.984375 96.628906 130.738281 96.464844 130.519531 96.25 C 130.304688 96.035156 130.140625 95.785156 130.023438 95.503906 C 129.90625 95.222656 129.847656 94.929688 129.847656 94.625 C 129.847656 94.320312 129.90625 94.027344 130.023438 93.746094 C 130.140625 93.464844 130.304688 93.214844 130.519531 93 C 130.738281 92.785156 130.984375 92.617188 131.265625 92.5 C 131.546875 92.386719 131.839844 92.328125 132.144531 92.328125 C 132.449219 92.328125 132.742188 92.386719 133.023438 92.5 C 133.308594 92.617188 133.554688 92.785156 133.769531 93 C 133.984375 93.214844 134.152344 93.464844 134.269531 93.746094 C 134.386719 94.027344 134.445312 94.320312 134.445312 94.625 Z M 134.445312 94.625 " fill-opacity="1" fill-rule="nonzero"/><path fill="#051d40" d="M 145.664062 112.320312 C 145.664062 112.625 145.605469 112.917969 145.492188 113.199219 C 145.375 113.480469 145.207031 113.730469 144.992188 113.945312 C 144.777344 114.160156 144.527344 114.328125 144.246094 114.441406 C 143.964844 114.558594 143.671875 114.617188 143.367188 114.617188 C 143.0625 114.617188 142.769531 114.558594 142.488281 114.441406 C 142.207031 114.328125 141.957031 114.160156 141.742188 113.945312 C 141.527344 113.730469 141.363281 113.480469 141.246094 113.199219 C 141.128906 112.917969 141.070312 112.625 141.070312 112.320312 C 141.070312 112.015625 141.128906 111.722656 141.246094 111.441406 C 141.363281 111.160156 141.527344 110.910156 141.742188 110.695312 C 141.957031 110.480469 142.207031 110.3125 142.488281 110.199219 C 142.769531 110.082031 143.0625 110.023438 143.367188 110.023438 C 143.671875 110.023438 143.964844 110.082031 144.246094 110.199219 C 144.527344 110.3125 144.777344 110.480469 144.992188 110.695312 C 145.207031 110.910156 145.375 111.160156 145.492188 111.441406 C 145.605469 111.722656 145.664062 112.015625 145.664062 112.320312 Z M 145.664062 112.320312 " fill-opacity="1" fill-rule="nonzero"/><path fill="#051d40" d="M 75.117188 65.222656 C 75.117188 65.527344 75.058594 65.820312 74.941406 66.101562 C 74.824219 66.382812 74.660156 66.628906 74.445312 66.847656 C 74.226562 67.0625 73.980469 67.226562 73.699219 67.34375 C 73.417969 67.460938 73.125 67.519531 72.820312 67.519531 C 72.515625 67.519531 72.222656 67.460938 71.941406 67.34375 C 71.65625 67.226562 71.410156 67.0625 71.195312 66.847656 C 70.980469 66.628906 70.8125 66.382812 70.695312 66.101562 C 70.578125 65.820312 70.519531 65.527344 70.519531 65.222656 C 70.519531 64.917969 70.578125 64.625 70.695312 64.34375 C 70.8125 64.0625 70.980469 63.8125 71.195312 63.597656 C 71.410156 63.382812 71.65625 63.214844 71.941406 63.097656 C 72.222656 62.980469 72.515625 62.925781 72.820312 62.925781 C 73.125 62.925781 73.417969 62.980469 73.699219 63.097656 C 73.980469 63.214844 74.226562 63.382812 74.445312 63.597656 C 74.660156 63.8125 74.824219 64.0625 74.941406 64.34375 C 75.058594 64.625 75.117188 64.917969 75.117188 65.222656 Z M 75.117188 65.222656 " fill-opacity="1" fill-rule="nonzero"/><path fill="#051d40" d="M 121.730469 75.195312 C 121.730469 75.5 121.671875 75.792969 121.554688 76.074219 C 121.441406 76.359375 121.273438 76.605469 121.058594 76.820312 C 120.84375 77.035156 120.59375 77.203125 120.3125 77.320312 C 120.03125 77.4375 119.738281 77.496094 119.433594 77.496094 C 119.128906 77.496094 118.835938 77.4375 118.554688 77.320312 C 118.273438 77.203125 118.023438 77.035156 117.808594 76.820312 C 117.59375 76.605469 117.425781 76.359375 117.3125 76.074219 C 117.195312 75.792969 117.136719 75.5 117.136719 75.195312 C 117.136719 74.890625 117.195312 74.597656 117.3125 74.316406 C 117.425781 74.035156 117.59375 73.789062 117.808594 73.570312 C 118.023438 73.355469 118.273438 73.191406 118.554688 73.074219 C 118.835938 72.957031 119.128906 72.898438 119.433594 72.898438 C 119.738281 72.898438 120.03125 72.957031 120.3125 73.074219 C 120.59375 73.191406 120.84375 73.355469 121.058594 73.570312 C 121.273438 73.789062 121.441406 74.035156 121.554688 74.316406 C 121.671875 74.597656 121.730469 74.890625 121.730469 75.195312 Z M 121.730469 75.195312 " fill-opacity="1" fill-rule="nonzero"/><path fill="#051d40" d="M 132.054688 66.277344 C 132.054688 66.582031 131.996094 66.875 131.878906 67.15625 C 131.761719 67.4375 131.597656 67.6875 131.382812 67.902344 C 131.164062 68.117188 130.917969 68.28125 130.636719 68.398438 C 130.355469 68.515625 130.0625 68.574219 129.757812 68.574219 C 129.453125 68.574219 129.160156 68.515625 128.878906 68.398438 C 128.597656 68.28125 128.347656 68.117188 128.132812 67.902344 C 127.917969 67.6875 127.75 67.4375 127.632812 67.15625 C 127.515625 66.875 127.457031 66.582031 127.457031 66.277344 C 127.457031 65.972656 127.515625 65.679688 127.632812 65.398438 C 127.75 65.117188 127.917969 64.867188 128.132812 64.652344 C 128.347656 64.4375 128.597656 64.269531 128.878906 64.152344 C 129.160156 64.039062 129.453125 63.980469 129.757812 63.980469 C 130.0625 63.980469 130.355469 64.039062 130.636719 64.152344 C 130.917969 64.269531 131.164062 64.4375 131.382812 64.652344 C 131.597656 64.867188 131.761719 65.117188 131.878906 65.398438 C 131.996094 65.679688 132.054688 65.972656 132.054688 66.277344 Z M 132.054688 66.277344 " fill-opacity="1" fill-rule="nonzero"/><path fill="#051d40" d="M 184.472656 92.007812 C 184.472656 92.3125 184.414062 92.605469 184.296875 92.886719 C 184.183594 93.167969 184.015625 93.417969 183.800781 93.632812 C 183.585938 93.847656 183.335938 94.015625 183.054688 94.132812 C 182.773438 94.25 182.480469 94.308594 182.175781 94.308594 C 181.871094 94.308594 181.578125 94.25 181.296875 94.132812 C 181.015625 94.015625 180.765625 93.847656 180.550781 93.632812 C 180.335938 93.417969 180.167969 93.167969 180.054688 92.886719 C 179.9375 92.605469 179.878906 92.3125 179.878906 92.007812 C 179.878906 91.703125 179.9375 91.410156 180.054688 91.128906 C 180.167969 90.847656 180.335938 90.601562 180.550781 90.382812 C 180.765625 90.167969 181.015625 90.003906 181.296875 89.886719 C 181.578125 89.769531 181.871094 89.710938 182.175781 89.710938 C 182.480469 89.710938 182.773438 89.769531 183.054688 89.886719 C 183.335938 90.003906 183.585938 90.167969 183.800781 90.382812 C 184.015625 90.601562 184.183594 90.847656 184.296875 91.128906 C 184.414062 91.410156 184.472656 91.703125 184.472656 92.007812 Z M 184.472656 92.007812 " fill-opacity="1" fill-rule="nonzero"/><path fill="#051d40" d="M 232.429688 73.144531 C 232.429688 73.449219 232.371094 73.742188 232.257812 74.023438 C 232.140625 74.304688 231.972656 74.550781 231.757812 74.769531 C 231.542969 74.984375 231.292969 75.148438 231.011719 75.265625 C 230.730469 75.382812 230.4375 75.441406 230.132812 75.441406 C 229.828125 75.441406 229.535156 75.382812 229.253906 75.265625 C 228.972656 75.148438 228.722656 74.984375 228.507812 74.769531 C 228.292969 74.550781 228.128906 74.304688 228.011719 74.023438 C 227.894531 73.742188 227.835938 73.449219 227.835938 73.144531 C 227.835938 72.839844 227.894531 72.546875 228.011719 72.265625 C 228.128906 71.980469 228.292969 71.734375 228.507812 71.519531 C 228.722656 71.304688 228.972656 71.136719 229.253906 71.019531 C 229.535156 70.902344 229.828125 70.84375 230.132812 70.84375 C 230.4375 70.84375 230.730469 70.902344 231.011719 71.019531 C 231.292969 71.136719 231.542969 71.304688 231.757812 71.519531 C 231.972656 71.734375 232.140625 71.980469 232.257812 72.265625 C 232.371094 72.546875 232.429688 72.839844 232.429688 73.144531 Z M 232.429688 73.144531 " fill-opacity="1" fill-rule="nonzero"/><path fill="#051d40" d="M 240.582031 81.582031 C 240.582031 81.886719 240.523438 82.179688 240.410156 82.464844 C 240.292969 82.746094 240.125 82.992188 239.910156 83.207031 C 239.695312 83.425781 239.445312 83.589844 239.164062 83.707031 C 238.882812 83.824219 238.589844 83.882812 238.285156 83.882812 C 237.980469 83.882812 237.6875 83.824219 237.40625 83.707031 C 237.125 83.589844 236.875 83.425781 236.660156 83.207031 C 236.445312 82.992188 236.28125 82.746094 236.164062 82.464844 C 236.046875 82.179688 235.988281 81.886719 235.988281 81.582031 C 235.988281 81.277344 236.046875 80.984375 236.164062 80.703125 C 236.28125 80.421875 236.445312 80.175781 236.660156 79.960938 C 236.875 79.742188 237.125 79.578125 237.40625 79.460938 C 237.6875 79.34375 237.980469 79.285156 238.285156 79.285156 C 238.589844 79.285156 238.882812 79.34375 239.164062 79.460938 C 239.445312 79.578125 239.695312 79.742188 239.910156 79.960938 C 240.125 80.175781 240.292969 80.421875 240.410156 80.703125 C 240.523438 80.984375 240.582031 81.277344 240.582031 81.582031 Z M 240.582031 81.582031 " fill-opacity="1" fill-rule="nonzero"/><path fill="#051d40" d="M 231.734375 94.308594 C 231.734375 94.613281 231.675781 94.90625 231.558594 95.1875 C 231.445312 95.46875 231.277344 95.714844 231.0625 95.929688 C 230.847656 96.148438 230.597656 96.3125 230.316406 96.429688 C 230.035156 96.546875 229.742188 96.605469 229.4375 96.605469 C 229.132812 96.605469 228.839844 96.546875 228.558594 96.429688 C 228.277344 96.3125 228.027344 96.148438 227.8125 95.929688 C 227.597656 95.714844 227.429688 95.46875 227.316406 95.1875 C 227.199219 94.90625 227.140625 94.613281 227.140625 94.308594 C 227.140625 94.003906 227.199219 93.707031 227.316406 93.425781 C 227.429688 93.144531 227.597656 92.898438 227.8125 92.683594 C 228.027344 92.464844 228.277344 92.300781 228.558594 92.183594 C 228.839844 92.066406 229.132812 92.007812 229.4375 92.007812 C 229.742188 92.007812 230.035156 92.066406 230.316406 92.183594 C 230.597656 92.300781 230.847656 92.464844 231.0625 92.683594 C 231.277344 92.898438 231.445312 93.144531 231.558594 93.425781 C 231.675781 93.707031 231.734375 94.003906 231.734375 94.308594 Z M 231.734375 94.308594 " fill-opacity="1" fill-rule="nonzero"/><path fill="#051d40" d="M 230.945312 102.9375 C 230.945312 103.242188 230.886719 103.539062 230.769531 103.820312 C 230.652344 104.101562 230.488281 104.347656 230.269531 104.5625 C 230.054688 104.78125 229.808594 104.945312 229.527344 105.0625 C 229.246094 105.179688 228.953125 105.238281 228.648438 105.238281 C 228.34375 105.238281 228.046875 105.179688 227.765625 105.0625 C 227.484375 104.945312 227.238281 104.78125 227.023438 104.5625 C 226.804688 104.347656 226.640625 104.101562 226.523438 103.820312 C 226.40625 103.539062 226.347656 103.242188 226.347656 102.9375 C 226.347656 102.632812 226.40625 102.339844 226.523438 102.058594 C 226.640625 101.777344 226.804688 101.53125 227.023438 101.316406 C 227.238281 101.097656 227.484375 100.933594 227.765625 100.816406 C 228.046875 100.699219 228.34375 100.640625 228.648438 100.640625 C 228.953125 100.640625 229.246094 100.699219 229.527344 100.816406 C 229.808594 100.933594 230.054688 101.097656 230.269531 101.316406 C 230.488281 101.53125 230.652344 101.777344 230.769531 102.058594 C 230.886719 102.339844 230.945312 102.632812 230.945312 102.9375 Z M 230.945312 102.9375 " fill-opacity="1" fill-rule="nonzero"/><path fill="#051d40" d="M 245.179688 113.011719 C 245.179688 113.316406 245.121094 113.609375 245.003906 113.890625 C 244.886719 114.171875 244.722656 114.417969 244.507812 114.632812 C 244.289062 114.851562 244.042969 115.015625 243.761719 115.132812 C 243.480469 115.25 243.1875 115.308594 242.882812 115.308594 C 242.578125 115.308594 242.285156 115.25 242.003906 115.132812 C 241.722656 115.015625 241.472656 114.851562 241.257812 114.632812 C 241.042969 114.417969 240.875 114.171875 240.757812 113.890625 C 240.640625 113.609375 240.585938 113.316406 240.585938 113.011719 C 240.585938 112.707031 240.640625 112.414062 240.757812 112.128906 C 240.875 111.847656 241.042969 111.601562 241.257812 111.386719 C 241.472656 111.167969 241.722656 111.003906 242.003906 110.886719 C 242.285156 110.769531 242.578125 110.710938 242.882812 110.710938 C 243.1875 110.710938 243.480469 110.769531 243.761719 110.886719 C 244.042969 111.003906 244.289062 111.167969 244.507812 111.386719 C 244.722656 111.601562 244.886719 111.847656 245.003906 112.128906 C 245.121094 112.414062 245.179688 112.707031 245.179688 113.011719 Z M 245.179688 113.011719 " fill-opacity="1" fill-rule="nonzero"/><path fill="#051d40" d="M 273.429688 143.367188 C 273.429688 143.671875 273.371094 143.964844 273.253906 144.246094 C 273.136719 144.527344 272.972656 144.777344 272.757812 144.992188 C 272.539062 145.207031 272.292969 145.375 272.011719 145.492188 C 271.730469 145.605469 271.4375 145.664062 271.132812 145.664062 C 270.828125 145.664062 270.535156 145.605469 270.253906 145.492188 C 269.972656 145.375 269.722656 145.207031 269.507812 144.992188 C 269.292969 144.777344 269.125 144.527344 269.007812 144.246094 C 268.890625 143.964844 268.835938 143.671875 268.835938 143.367188 C 268.835938 143.0625 268.890625 142.769531 269.007812 142.488281 C 269.125 142.207031 269.292969 141.957031 269.507812 141.742188 C 269.722656 141.527344 269.972656 141.363281 270.253906 141.246094 C 270.535156 141.128906 270.828125 141.070312 271.132812 141.070312 C 271.4375 141.070312 271.730469 141.128906 272.011719 141.246094 C 272.292969 141.363281 272.539062 141.527344 272.757812 141.742188 C 272.972656 141.957031 273.136719 142.207031 273.253906 142.488281 C 273.371094 142.769531 273.429688 143.0625 273.429688 143.367188 Z M 273.429688 143.367188 " fill-opacity="1" fill-rule="nonzero"/><path fill="#051d40" d="M 278.417969 114.210938 C 278.417969 114.515625 278.359375 114.808594 278.242188 115.089844 C 278.125 115.371094 277.960938 115.617188 277.742188 115.835938 C 277.527344 116.050781 277.28125 116.214844 277 116.332031 C 276.71875 116.449219 276.425781 116.507812 276.121094 116.507812 C 275.816406 116.507812 275.523438 116.449219 275.238281 116.332031 C 274.957031 116.214844 274.710938 116.050781 274.496094 115.835938 C 274.277344 115.617188 274.113281 115.371094 273.996094 115.089844 C 273.878906 114.808594 273.820312 114.515625 273.820312 114.210938 C 273.820312 113.90625 273.878906 113.613281 273.996094 113.332031 C 274.113281 113.046875 274.277344 112.800781 274.496094 112.585938 C 274.710938 112.371094 274.957031 112.203125 275.238281 112.085938 C 275.523438 111.96875 275.816406 111.910156 276.121094 111.910156 C 276.425781 111.910156 276.71875 111.96875 277 112.085938 C 277.28125 112.203125 277.527344 112.371094 277.742188 112.585938 C 277.960938 112.800781 278.125 113.046875 278.242188 113.332031 C 278.359375 113.613281 278.417969 113.90625 278.417969 114.210938 Z M 278.417969 114.210938 " fill-opacity="1" fill-rule="nonzero"/><path fill="#051d40" d="M 265.203125 87.734375 C 265.203125 88.039062 265.144531 88.332031 265.03125 88.613281 C 264.914062 88.894531 264.746094 89.144531 264.53125 89.359375 C 264.316406 89.574219 264.066406 89.742188 263.785156 89.855469 C 263.503906 89.972656 263.210938 90.03125 262.90625 90.03125 C 262.601562 90.03125 262.308594 89.972656 262.027344 89.855469 C 261.746094 89.742188 261.496094 89.574219 261.28125 89.359375 C 261.066406 89.144531 260.902344 88.894531 260.785156 88.613281 C 260.667969 88.332031 260.609375 88.039062 260.609375 87.734375 C 260.609375 87.429688 260.667969 87.136719 260.785156 86.855469 C 260.902344 86.574219 261.066406 86.324219 261.28125 86.109375 C 261.496094 85.894531 261.746094 85.726562 262.027344 85.613281 C 262.308594 85.496094 262.601562 85.4375 262.90625 85.4375 C 263.210938 85.4375 263.503906 85.496094 263.785156 85.613281 C 264.066406 85.726562 264.316406 85.894531 264.53125 86.109375 C 264.746094 86.324219 264.914062 86.574219 265.03125 86.855469 C 265.144531 87.136719 265.203125 87.429688 265.203125 87.734375 Z M 265.203125 87.734375 " fill-opacity="1" fill-rule="nonzero"/><path fill="#051d40" d="M 282.085938 48.886719 C 282.085938 49.191406 282.027344 49.484375 281.910156 49.769531 C 281.792969 50.050781 281.628906 50.296875 281.414062 50.511719 C 281.195312 50.730469 280.949219 50.894531 280.667969 51.011719 C 280.386719 51.128906 280.09375 51.1875 279.789062 51.1875 C 279.484375 51.1875 279.191406 51.128906 278.910156 51.011719 C 278.628906 50.894531 278.378906 50.730469 278.164062 50.511719 C 277.949219 50.296875 277.78125 50.050781 277.664062 49.769531 C 277.546875 49.484375 277.488281 49.191406 277.492188 48.886719 C 277.488281 48.582031 277.546875 48.289062 277.664062 48.007812 C 277.78125 47.726562 277.949219 47.480469 278.164062 47.265625 C 278.378906 47.046875 278.628906 46.882812 278.910156 46.765625 C 279.191406 46.648438 279.484375 46.589844 279.789062 46.589844 C 280.09375 46.589844 280.386719 46.648438 280.667969 46.765625 C 280.949219 46.882812 281.195312 47.046875 281.414062 47.265625 C 281.628906 47.480469 281.792969 47.726562 281.910156 48.007812 C 282.027344 48.289062 282.085938 48.582031 282.085938 48.886719 Z M 282.085938 48.886719 " fill-opacity="1" fill-rule="nonzero"/><path fill="#051d40" d="M 307.597656 54.929688 C 307.597656 55.234375 307.539062 55.527344 307.421875 55.8125 C 307.308594 56.09375 307.140625 56.339844 306.925781 56.554688 C 306.710938 56.773438 306.460938 56.9375 306.179688 57.054688 C 305.898438 57.171875 305.605469 57.230469 305.300781 57.230469 C 304.996094 57.230469 304.703125 57.171875 304.421875 57.054688 C 304.140625 56.9375 303.890625 56.773438 303.675781 56.554688 C 303.460938 56.339844 303.292969 56.09375 303.179688 55.8125 C 303.0625 55.527344 303.003906 55.234375 303.003906 54.929688 C 303.003906 54.625 303.0625 54.332031 303.179688 54.050781 C 303.292969 53.769531 303.460938 53.523438 303.675781 53.308594 C 303.890625 53.089844 304.140625 52.925781 304.421875 52.808594 C 304.703125 52.691406 304.996094 52.632812 305.300781 52.632812 C 305.605469 52.632812 305.898438 52.691406 306.179688 52.808594 C 306.460938 52.925781 306.710938 53.089844 306.925781 53.308594 C 307.140625 53.523438 307.308594 53.769531 307.421875 54.050781 C 307.539062 54.332031 307.597656 54.625 307.597656 54.929688 Z M 307.597656 54.929688 " fill-opacity="1" fill-rule="nonzero"/><g clip-path="url(#cbdd2add0b)"><path fill="#051d40" d="M 317.09375 2.945312 C 317.09375 3.25 317.035156 3.542969 316.917969 3.824219 C 316.800781 4.105469 316.636719 4.355469 316.421875 4.570312 C 316.207031 4.785156 315.957031 4.953125 315.675781 5.070312 C 315.394531 5.183594 315.101562 5.242188 314.796875 5.242188 C 314.492188 5.242188 314.199219 5.183594 313.917969 5.070312 C 313.636719 4.953125 313.386719 4.785156 313.171875 4.570312 C 312.957031 4.355469 312.789062 4.105469 312.671875 3.824219 C 312.558594 3.542969 312.5 3.25 312.5 2.945312 C 312.5 2.640625 312.558594 2.347656 312.671875 2.066406 C 312.789062 1.785156 312.957031 1.535156 313.171875 1.320312 C 313.386719 1.105469 313.636719 0.941406 313.917969 0.824219 C 314.199219 0.707031 314.492188 0.648438 314.796875 0.648438 C 315.101562 0.648438 315.394531 0.707031 315.675781 0.824219 C 315.957031 0.941406 316.207031 1.105469 316.421875 1.320312 C 316.636719 1.535156 316.800781 1.785156 316.917969 2.066406 C 317.035156 2.347656 317.09375 2.640625 317.09375 2.945312 Z M 317.09375 2.945312 " fill-opacity="1" fill-rule="nonzero"/></g><path fill="#051d40" d="M 264.40625 40.71875 C 264.40625 41.023438 264.347656 41.316406 264.230469 41.597656 C 264.113281 41.878906 263.949219 42.125 263.734375 42.34375 C 263.515625 42.558594 263.269531 42.722656 262.988281 42.839844 C 262.707031 42.957031 262.414062 43.015625 262.109375 43.015625 C 261.804688 43.015625 261.511719 42.957031 261.230469 42.839844 C 260.945312 42.722656 260.699219 42.558594 260.484375 42.34375 C 260.269531 42.125 260.101562 41.878906 259.984375 41.597656 C 259.867188 41.316406 259.808594 41.023438 259.808594 40.71875 C 259.808594 40.414062 259.867188 40.121094 259.984375 39.839844 C 260.101562 39.558594 260.269531 39.308594 260.484375 39.09375 C 260.699219 38.878906 260.945312 38.710938 261.230469 38.59375 C 261.511719 38.476562 261.804688 38.421875 262.109375 38.421875 C 262.414062 38.421875 262.707031 38.476562 262.988281 38.59375 C 263.269531 38.710938 263.515625 38.878906 263.734375 39.09375 C 263.949219 39.308594 264.113281 39.558594 264.230469 39.839844 C 264.347656 40.121094 264.40625 40.414062 264.40625 40.71875 Z M 264.40625 40.71875 " fill-opacity="1" fill-rule="nonzero"/><path fill="#051d40" d="M 329.101562 18.226562 C 329.101562 18.53125 329.042969 18.824219 328.929688 19.105469 C 328.8125 19.386719 328.644531 19.636719 328.429688 19.851562 C 328.214844 20.066406 327.964844 20.234375 327.683594 20.351562 C 327.402344 20.46875 327.109375 20.527344 326.804688 20.527344 C 326.5 20.527344 326.207031 20.46875 325.925781 20.351562 C 325.644531 20.234375 325.394531 20.066406 325.179688 19.851562 C 324.964844 19.636719 324.800781 19.386719 324.683594 19.105469 C 324.566406 18.824219 324.507812 18.53125 324.507812 18.226562 C 324.507812 17.921875 324.566406 17.628906 324.683594 17.347656 C 324.800781 17.066406 324.964844 16.820312 325.179688 16.601562 C 325.394531 16.386719 325.644531 16.222656 325.925781 16.105469 C 326.207031 15.988281 326.5 15.929688 326.804688 15.929688 C 327.109375 15.929688 327.402344 15.988281 327.683594 16.105469 C 327.964844 16.222656 328.214844 16.386719 328.429688 16.601562 C 328.644531 16.820312 328.8125 17.066406 328.929688 17.347656 C 329.042969 17.628906 329.101562 17.921875 329.101562 18.226562 Z M 329.101562 18.226562 " fill-opacity="1" fill-rule="nonzero"/><path fill="#051d40" d="M 337.269531 32.785156 C 337.269531 33.089844 337.210938 33.382812 337.097656 33.664062 C 336.980469 33.945312 336.8125 34.195312 336.597656 34.410156 C 336.382812 34.625 336.132812 34.792969 335.851562 34.90625 C 335.570312 35.023438 335.277344 35.082031 334.972656 35.082031 C 334.667969 35.082031 334.375 35.023438 334.09375 34.90625 C 333.8125 34.792969 333.5625 34.625 333.347656 34.410156 C 333.132812 34.195312 332.96875 33.945312 332.851562 33.664062 C 332.734375 33.382812 332.675781 33.089844 332.675781 32.785156 C 332.675781 32.480469 332.734375 32.1875 332.851562 31.90625 C 332.96875 31.625 333.132812 31.375 333.347656 31.160156 C 333.5625 30.945312 333.8125 30.777344 334.09375 30.664062 C 334.375 30.546875 334.667969 30.488281 334.972656 30.488281 C 335.277344 30.488281 335.570312 30.546875 335.851562 30.664062 C 336.132812 30.777344 336.382812 30.945312 336.597656 31.160156 C 336.8125 31.375 336.980469 31.625 337.097656 31.90625 C 337.210938 32.1875 337.269531 32.480469 337.269531 32.785156 Z M 337.269531 32.785156 " fill-opacity="1" fill-rule="nonzero"/><path fill="#051d40" d="M 360.945312 92.007812 C 360.945312 92.3125 360.886719 92.605469 360.773438 92.886719 C 360.65625 93.167969 360.488281 93.417969 360.273438 93.632812 C 360.058594 93.847656 359.808594 94.015625 359.527344 94.132812 C 359.246094 94.25 358.953125 94.308594 358.648438 94.308594 C 358.34375 94.308594 358.050781 94.25 357.769531 94.132812 C 357.488281 94.015625 357.238281 93.847656 357.023438 93.632812 C 356.808594 93.417969 356.644531 93.167969 356.527344 92.886719 C 356.410156 92.605469 356.351562 92.3125 356.351562 92.007812 C 356.351562 91.703125 356.410156 91.410156 356.527344 91.128906 C 356.644531 90.847656 356.808594 90.601562 357.023438 90.382812 C 357.238281 90.167969 357.488281 90.003906 357.769531 89.886719 C 358.050781 89.769531 358.34375 89.710938 358.648438 89.710938 C 358.953125 89.710938 359.246094 89.769531 359.527344 89.886719 C 359.808594 90.003906 360.058594 90.167969 360.273438 90.382812 C 360.488281 90.601562 360.65625 90.847656 360.773438 91.128906 C 360.886719 91.410156 360.945312 91.703125 360.945312 92.007812 Z M 360.945312 92.007812 " fill-opacity="1" fill-rule="nonzero"/><path fill="#051d40" d="M 325.648438 92.007812 C 325.648438 92.3125 325.59375 92.605469 325.476562 92.886719 C 325.359375 93.167969 325.191406 93.417969 324.976562 93.632812 C 324.761719 93.847656 324.511719 94.015625 324.230469 94.132812 C 323.949219 94.25 323.65625 94.308594 323.351562 94.308594 C 323.046875 94.308594 322.753906 94.25 322.472656 94.132812 C 322.191406 94.015625 321.941406 93.847656 321.726562 93.632812 C 321.511719 93.417969 321.347656 93.167969 321.230469 92.886719 C 321.113281 92.605469 321.054688 92.3125 321.054688 92.007812 C 321.054688 91.703125 321.113281 91.410156 321.230469 91.128906 C 321.347656 90.847656 321.511719 90.601562 321.726562 90.382812 C 321.941406 90.167969 322.191406 90.003906 322.472656 89.886719 C 322.753906 89.769531 323.046875 89.710938 323.351562 89.710938 C 323.65625 89.710938 323.949219 89.769531 324.230469 89.886719 C 324.511719 90.003906 324.761719 90.167969 324.976562 90.382812 C 325.191406 90.601562 325.359375 90.847656 325.476562 91.128906 C 325.59375 91.410156 325.648438 91.703125 325.648438 92.007812 Z M 325.648438 92.007812 " fill-opacity="1" fill-rule="nonzero"/><path fill="#051d40" d="M 293.613281 80.691406 C 293.613281 80.996094 293.554688 81.289062 293.441406 81.570312 C 293.324219 81.851562 293.15625 82.101562 292.941406 82.316406 C 292.726562 82.53125 292.476562 82.699219 292.195312 82.8125 C 291.914062 82.929688 291.621094 82.988281 291.316406 82.988281 C 291.011719 82.988281 290.71875 82.929688 290.4375 82.8125 C 290.15625 82.699219 289.90625 82.53125 289.691406 82.316406 C 289.476562 82.101562 289.3125 81.851562 289.195312 81.570312 C 289.078125 81.289062 289.019531 80.996094 289.019531 80.691406 C 289.019531 80.386719 289.078125 80.09375 289.195312 79.8125 C 289.3125 79.53125 289.476562 79.28125 289.691406 79.066406 C 289.90625 78.851562 290.15625 78.683594 290.4375 78.570312 C 290.71875 78.453125 291.011719 78.394531 291.316406 78.394531 C 291.621094 78.394531 291.914062 78.453125 292.195312 78.570312 C 292.476562 78.683594 292.726562 78.851562 292.941406 79.066406 C 293.15625 79.28125 293.324219 79.53125 293.441406 79.8125 C 293.554688 80.09375 293.613281 80.386719 293.613281 80.691406 Z M 293.613281 80.691406 " fill-opacity="1" fill-rule="nonzero"/><path fill="#051d40" d="M 326.710938 138.773438 C 326.710938 139.078125 326.652344 139.371094 326.535156 139.652344 C 326.417969 139.933594 326.25 140.183594 326.035156 140.398438 C 325.820312 140.613281 325.570312 140.777344 325.289062 140.894531 C 325.007812 141.011719 324.714844 141.070312 324.410156 141.070312 C 324.105469 141.070312 323.8125 141.011719 323.53125 140.894531 C 323.25 140.777344 323.003906 140.613281 322.785156 140.398438 C 322.570312 140.183594 322.40625 139.933594 322.289062 139.652344 C 322.171875 139.371094 322.113281 139.078125 322.113281 138.773438 C 322.113281 138.46875 322.171875 138.175781 322.289062 137.894531 C 322.40625 137.613281 322.570312 137.363281 322.785156 137.148438 C 323.003906 136.933594 323.25 136.765625 323.53125 136.648438 C 323.8125 136.53125 324.105469 136.476562 324.410156 136.476562 C 324.714844 136.476562 325.007812 136.53125 325.289062 136.648438 C 325.570312 136.765625 325.820312 136.933594 326.035156 137.148438 C 326.25 137.363281 326.417969 137.613281 326.535156 137.894531 C 326.652344 138.175781 326.710938 138.46875 326.710938 138.773438 Z M 326.710938 138.773438 " fill-opacity="1" fill-rule="nonzero"/><path fill="#051d40" d="M 312.609375 114.617188 C 312.609375 114.921875 312.550781 115.214844 312.433594 115.5 C 312.316406 115.78125 312.152344 116.027344 311.9375 116.242188 C 311.722656 116.460938 311.472656 116.625 311.191406 116.742188 C 310.910156 116.859375 310.617188 116.917969 310.3125 116.917969 C 310.007812 116.917969 309.714844 116.859375 309.433594 116.742188 C 309.152344 116.625 308.902344 116.460938 308.6875 116.242188 C 308.472656 116.027344 308.304688 115.78125 308.1875 115.5 C 308.074219 115.214844 308.015625 114.921875 308.015625 114.617188 C 308.015625 114.3125 308.074219 114.019531 308.1875 113.738281 C 308.304688 113.457031 308.472656 113.210938 308.6875 112.996094 C 308.902344 112.777344 309.152344 112.613281 309.433594 112.496094 C 309.714844 112.378906 310.007812 112.320312 310.3125 112.320312 C 310.617188 112.320312 310.910156 112.378906 311.191406 112.496094 C 311.472656 112.613281 311.722656 112.777344 311.9375 112.996094 C 312.152344 113.210938 312.316406 113.457031 312.433594 113.738281 C 312.550781 114.019531 312.609375 114.3125 312.609375 114.617188 Z M 312.609375 114.617188 " fill-opacity="1" fill-rule="nonzero"/><g clip-path="url(#79b36ddc15)"><path fill="#051d40" d="M 312.609375 161.8125 C 312.609375 162.117188 312.550781 162.410156 312.433594 162.691406 C 312.316406 162.972656 312.152344 163.222656 311.9375 163.4375 C 311.722656 163.652344 311.472656 163.820312 311.191406 163.933594 C 310.910156 164.050781 310.617188 164.109375 310.3125 164.109375 C 310.007812 164.109375 309.714844 164.050781 309.433594 163.933594 C 309.152344 163.820312 308.902344 163.652344 308.6875 163.4375 C 308.472656 163.222656 308.304688 162.972656 308.1875 162.691406 C 308.074219 162.410156 308.015625 162.117188 308.015625 161.8125 C 308.015625 161.507812 308.074219 161.214844 308.1875 160.933594 C 308.304688 160.652344 308.472656 160.402344 308.6875 160.1875 C 308.902344 159.972656 309.152344 159.804688 309.433594 159.691406 C 309.714844 159.574219 310.007812 159.515625 310.3125 159.515625 C 310.617188 159.515625 310.910156 159.574219 311.191406 159.691406 C 311.472656 159.804688 311.722656 159.972656 311.9375 160.1875 C 312.152344 160.402344 312.316406 160.652344 312.433594 160.933594 C 312.550781 161.214844 312.609375 161.507812 312.609375 161.8125 Z M 312.609375 161.8125 " fill-opacity="1" fill-rule="nonzero"/></g><path fill="#051d40" d="M 372.886719 158.359375 C 372.886719 158.664062 372.828125 158.957031 372.710938 159.238281 C 372.597656 159.519531 372.429688 159.769531 372.214844 159.984375 C 372 160.199219 371.75 160.367188 371.46875 160.484375 C 371.1875 160.597656 370.894531 160.65625 370.589844 160.65625 C 370.285156 160.65625 369.992188 160.597656 369.710938 160.484375 C 369.429688 160.367188 369.179688 160.199219 368.964844 159.984375 C 368.75 159.769531 368.582031 159.519531 368.46875 159.238281 C 368.351562 158.957031 368.292969 158.664062 368.292969 158.359375 C 368.292969 158.054688 368.351562 157.761719 368.46875 157.480469 C 368.582031 157.199219 368.75 156.949219 368.964844 156.734375 C 369.179688 156.519531 369.429688 156.355469 369.710938 156.238281 C 369.992188 156.121094 370.285156 156.0625 370.589844 156.0625 C 370.894531 156.0625 371.1875 156.121094 371.46875 156.238281 C 371.75 156.355469 372 156.519531 372.214844 156.734375 C 372.429688 156.949219 372.597656 157.199219 372.710938 157.480469 C 372.828125 157.761719 372.886719 158.054688 372.886719 158.359375 Z M 372.886719 158.359375 " fill-opacity="1" fill-rule="nonzero"/><g clip-path="url(#49d14e8de1)"><path fill="#051d40" d="M 342.746094 2.917969 C 342.746094 3.222656 342.6875 3.515625 342.570312 3.796875 C 342.453125 4.078125 342.289062 4.328125 342.074219 4.542969 C 341.859375 4.757812 341.609375 4.925781 341.328125 5.042969 C 341.046875 5.15625 340.753906 5.214844 340.449219 5.214844 C 340.144531 5.214844 339.851562 5.15625 339.570312 5.042969 C 339.289062 4.925781 339.039062 4.757812 338.824219 4.542969 C 338.609375 4.328125 338.441406 4.078125 338.324219 3.796875 C 338.207031 3.515625 338.152344 3.222656 338.152344 2.917969 C 338.152344 2.613281 338.207031 2.320312 338.324219 2.039062 C 338.441406 1.757812 338.609375 1.507812 338.824219 1.292969 C 339.039062 1.078125 339.289062 0.914062 339.570312 0.796875 C 339.851562 0.679688 340.144531 0.621094 340.449219 0.621094 C 340.753906 0.621094 341.046875 0.679688 341.328125 0.796875 C 341.609375 0.914062 341.859375 1.078125 342.074219 1.292969 C 342.289062 1.507812 342.453125 1.757812 342.570312 2.039062 C 342.6875 2.320312 342.746094 2.613281 342.746094 2.917969 Z M 342.746094 2.917969 " fill-opacity="1" fill-rule="nonzero"/></g><path fill="#051d40" d="M 362.386719 13.578125 C 362.386719 13.882812 362.328125 14.175781 362.210938 14.457031 C 362.09375 14.738281 361.925781 14.988281 361.710938 15.203125 C 361.496094 15.417969 361.25 15.585938 360.964844 15.703125 C 360.683594 15.816406 360.390625 15.875 360.085938 15.875 C 359.78125 15.875 359.488281 15.816406 359.207031 15.703125 C 358.925781 15.585938 358.679688 15.417969 358.460938 15.203125 C 358.246094 14.988281 358.082031 14.738281 357.964844 14.457031 C 357.847656 14.175781 357.789062 13.882812 357.789062 13.578125 C 357.789062 13.273438 357.847656 12.980469 357.964844 12.699219 C 358.082031 12.417969 358.246094 12.167969 358.460938 11.953125 C 358.679688 11.738281 358.925781 11.574219 359.207031 11.457031 C 359.488281 11.339844 359.78125 11.28125 360.085938 11.28125 C 360.390625 11.28125 360.683594 11.339844 360.964844 11.457031 C 361.25 11.574219 361.496094 11.738281 361.710938 11.953125 C 361.925781 12.167969 362.09375 12.417969 362.210938 12.699219 C 362.328125 12.980469 362.386719 13.273438 362.386719 13.578125 Z M 362.386719 13.578125 " fill-opacity="1" fill-rule="nonzero"/><path fill="#051d40" d="M 201.953125 106.03125 C 201.953125 106.335938 201.894531 106.628906 201.777344 106.910156 C 201.664062 107.191406 201.496094 107.441406 201.28125 107.65625 C 201.066406 107.871094 200.816406 108.039062 200.535156 108.15625 C 200.253906 108.273438 199.960938 108.328125 199.65625 108.328125 C 199.351562 108.328125 199.058594 108.273438 198.777344 108.15625 C 198.496094 108.039062 198.246094 107.871094 198.03125 107.65625 C 197.816406 107.441406 197.648438 107.191406 197.535156 106.910156 C 197.417969 106.628906 197.359375 106.335938 197.359375 106.03125 C 197.359375 105.726562 197.417969 105.433594 197.535156 105.152344 C 197.648438 104.871094 197.816406 104.625 198.03125 104.40625 C 198.246094 104.191406 198.496094 104.027344 198.777344 103.910156 C 199.058594 103.792969 199.351562 103.734375 199.65625 103.734375 C 199.960938 103.734375 200.253906 103.792969 200.535156 103.910156 C 200.816406 104.027344 201.066406 104.191406 201.28125 104.40625 C 201.496094 104.625 201.664062 104.871094 201.777344 105.152344 C 201.894531 105.433594 201.953125 105.726562 201.953125 106.03125 Z M 201.953125 106.03125 " fill-opacity="1" fill-rule="nonzero"/><path fill="#051d40" d="M 45.820312 158.511719 L 17.625 147.691406 L 17.71875 147.449219 L 45.75 158.207031 L 81.527344 120.503906 L 81.613281 120.550781 L 98.917969 130.199219 L 90.085938 85.878906 L 36.933594 104.851562 L 72.738281 65.335938 L 37.167969 62.367188 L 63.90625 15.183594 L 64.132812 15.3125 L 37.597656 62.140625 L 73.289062 65.117188 L 37.828125 104.253906 L 90.28125 85.53125 L 99.160156 130.066406 L 123.34375 85.421875 L 123.433594 85.429688 L 182.617188 91.925781 L 143.371094 112.492188 L 143.304688 112.390625 L 132.035156 94.519531 L 99.210938 130.523438 L 99.046875 130.828125 L 98.988281 130.53125 L 81.574219 120.828125 Z M 123.492188 85.699219 L 99.726562 129.570312 L 132.074219 94.09375 L 132.164062 94.238281 L 143.460938 112.148438 L 181.734375 92.09375 Z M 123.492188 85.699219 " fill-opacity="1" fill-rule="nonzero"/><path fill="#051d40" d="M 81.644531 120.839844 L 81.503906 120.789062 L 37.308594 104.664062 L 37.285156 104.640625 L 11.917969 77.585938 L 12.105469 77.40625 L 37.457031 104.441406 L 81.457031 120.492188 L 90.074219 85.605469 L 90.140625 85.582031 L 119.511719 75.03125 L 123.539062 85.511719 L 123.296875 85.605469 L 119.359375 75.363281 L 90.292969 85.804688 Z M 81.644531 120.839844 " fill-opacity="1" fill-rule="nonzero"/><path fill="#051d40" d="M 89.027344 44.660156 L 103.851562 44.660156 L 103.851562 44.921875 L 89.027344 44.921875 Z M 89.027344 44.660156 " fill-opacity="1" fill-rule="nonzero"/><path fill="#051d40" d="M 115.09375 60.082031 L 115.347656 60.019531 L 118.941406 75.03125 L 118.6875 75.09375 Z M 115.09375 60.082031 " fill-opacity="1" fill-rule="nonzero"/><g clip-path="url(#bf604b69e7)"><path fill="#051d40" d="M 10.5625 188.480469 L 10.390625 188.28125 L 44.941406 158.308594 L 37.25 104.558594 L 37.25 62.320312 L 10.203125 43.953125 L 10.429688 43.859375 L 58.574219 24.417969 L 58.671875 24.660156 L 10.753906 44.011719 L 37.511719 62.183594 L 37.511719 104.542969 L 45.21875 158.410156 Z M 10.5625 188.480469 " fill-opacity="1" fill-rule="nonzero"/></g><path fill="#051d40" d="M 2.757812 141.148438 L 37.292969 104.464844 L 37.484375 104.644531 L 2.949219 141.324219 Z M 2.757812 141.148438 " fill-opacity="1" fill-rule="nonzero"/><path fill="#051d40" d="M 276.238281 114.769531 L 182.144531 92.136719 L 182.183594 91.878906 L 229.382812 94.488281 L 238.316406 81.382812 L 238.402344 81.40625 L 262.753906 87.75 L 279.730469 48.574219 L 305.386719 54.917969 L 334.492188 32.832031 L 340.296875 2.894531 L 340.550781 2.941406 L 334.804688 32.59375 L 360.007812 13.472656 L 360.164062 13.683594 L 334.730469 32.980469 L 323.257812 92.183594 L 323.113281 92.132812 L 291.574219 80.734375 Z M 183.609375 92.21875 L 276.085938 114.464844 L 291.4375 80.410156 L 291.550781 80.449219 L 323.0625 91.835938 L 334.421875 33.21875 L 305.445312 55.203125 L 279.882812 48.882812 L 262.90625 88.0625 L 262.796875 88.03125 L 238.425781 81.679688 L 229.515625 94.757812 L 229.441406 94.753906 Z M 183.609375 92.21875 " fill-opacity="1" fill-rule="nonzero"/><path fill="#051d40" d="M 271.078125 143.503906 L 271.035156 143.457031 L 242.910156 112.730469 L 199.375 106.210938 L 199.347656 106.1875 L 181.921875 91.96875 L 182.128906 91.886719 L 230.164062 72.949219 L 229.246094 103.421875 L 229.132812 103.433594 L 200.511719 106.117188 L 243.039062 112.484375 L 243.070312 112.519531 L 271.183594 143.234375 L 324.242188 139.148438 L 358.390625 92.140625 L 323.078125 92.140625 L 323.042969 92.066406 L 305.28125 55.078125 L 305.289062 55.039062 L 314.398438 2.898438 L 314.65625 2.941406 L 305.550781 55.039062 L 323.242188 91.878906 L 358.90625 91.878906 L 324.382812 139.398438 L 324.320312 139.402344 Z M 182.429688 92.046875 L 199.472656 105.953125 L 228.992188 103.183594 L 229.890625 73.335938 Z M 182.429688 92.046875 " fill-opacity="1" fill-rule="nonzero"/><path fill="#051d40" d="M 370.539062 158.480469 L 324.21875 139.375 L 324.199219 139.335938 L 291.390625 80.628906 L 291.386719 80.617188 L 279.683594 48.773438 L 279.929688 48.683594 L 291.628906 80.519531 L 324.402344 139.167969 L 370.640625 158.238281 Z M 370.539062 158.480469 " fill-opacity="1" fill-rule="nonzero"/><path fill="#051d40" d="M 309.675781 161.929688 L 270.984375 143.441406 L 271.003906 143.34375 L 276.035156 114.597656 L 276.289062 114.640625 L 271.277344 143.292969 L 309.789062 161.695312 Z M 309.675781 161.929688 " fill-opacity="1" fill-rule="nonzero"/><path fill="#051d40" d="M 271.207031 143.472656 L 271.054688 143.261719 L 310.433594 114.53125 L 323.046875 91.945312 L 323.273438 92.074219 L 310.632812 114.707031 L 310.613281 114.722656 Z M 271.207031 143.472656 " fill-opacity="1" fill-rule="nonzero"/><path fill="#051d40" d="M 230.121094 73.234375 L 229.933594 73.050781 L 261.894531 40.558594 L 261.925781 40.546875 L 326.761719 18.105469 L 326.847656 18.351562 L 262.039062 40.785156 Z M 230.121094 73.234375 " fill-opacity="1" fill-rule="nonzero"/></g></g></g></g><g fill="#e46a1e" fill-opacity="1"><g transform="translate(29.221826, 102.564985)"><g><path d="M 23.90625 -18.390625 C 25.675781 -17.742188 27.125 -16.691406 28.25 -15.234375 C 29.382812 -13.785156 29.953125 -11.953125 29.953125 -9.734375 C 29.953125 -7.765625 29.488281 -6.039062 28.5625 -4.5625 C 27.632812 -3.09375 26.394531 -1.960938 24.84375 -1.171875 C 23.289062 -0.390625 21.546875 0 19.609375 0 L 4 0 L 4 -36.296875 L 18.265625 -36.296875 C 20.203125 -36.296875 21.957031 -35.894531 23.53125 -35.09375 C 25.101562 -34.289062 26.363281 -33.148438 27.3125 -31.671875 C 28.257812 -30.203125 28.734375 -28.457031 28.734375 -26.4375 C 28.734375 -24.5 28.300781 -22.851562 27.4375 -21.5 C 26.570312 -20.15625 25.394531 -19.117188 23.90625 -18.390625 Z M 22.8125 -25.84375 C 22.8125 -27.289062 22.296875 -28.476562 21.265625 -29.40625 C 20.234375 -30.332031 19.015625 -30.796875 17.609375 -30.796875 L 9.859375 -30.796875 L 9.859375 -20.75 L 17.609375 -20.75 C 19.015625 -20.75 20.234375 -21.242188 21.265625 -22.234375 C 22.296875 -23.222656 22.8125 -24.425781 22.8125 -25.84375 Z M 18.75 -5.5 C 20.207031 -5.5 21.445312 -5.972656 22.46875 -6.921875 C 23.5 -7.867188 24.015625 -9.050781 24.015625 -10.46875 C 24.015625 -11.875 23.5 -13.070312 22.46875 -14.0625 C 21.445312 -15.050781 20.207031 -15.546875 18.75 -15.546875 L 9.859375 -15.546875 L 9.859375 -5.5 Z M 18.75 -5.5 "/></g></g></g><g fill="#e46a1e" fill-opacity="1"><g transform="translate(61.465938, 102.564985)"><g><path d="M 7.140625 -28.5 C 6.210938 -28.5 5.40625 -28.84375 4.71875 -29.53125 C 4.03125 -30.21875 3.6875 -31.003906 3.6875 -31.890625 C 3.6875 -32.859375 4.03125 -33.675781 4.71875 -34.34375 C 5.40625 -35.007812 6.210938 -35.34375 7.140625 -35.34375 C 8.066406 -35.34375 8.875 -35.007812 9.5625 -34.34375 C 10.25 -33.675781 10.59375 -32.859375 10.59375 -31.890625 C 10.59375 -31.003906 10.25 -30.21875 9.5625 -29.53125 C 8.875 -28.84375 8.066406 -28.5 7.140625 -28.5 Z M 4.296875 0 L 4.296875 -24.203125 L 9.984375 -24.203125 L 9.984375 0 Z M 4.296875 0 "/></g></g></g><g fill="#e46a1e" fill-opacity="1"><g transform="translate(75.742879, 102.564985)"><g><path d="M 15.3125 0.484375 C 12.8125 0.484375 10.582031 -0.0664062 8.625 -1.171875 C 6.664062 -2.285156 5.117188 -3.800781 3.984375 -5.71875 C 2.859375 -7.632812 2.296875 -9.757812 2.296875 -12.09375 C 2.296875 -14.476562 2.859375 -16.617188 3.984375 -18.515625 C 5.117188 -20.410156 6.664062 -21.910156 8.625 -23.015625 C 10.582031 -24.128906 12.8125 -24.6875 15.3125 -24.6875 C 17.8125 -24.6875 20.035156 -24.128906 21.984375 -23.015625 C 23.941406 -21.910156 25.484375 -20.410156 26.609375 -18.515625 C 27.742188 -16.617188 28.3125 -14.476562 28.3125 -12.09375 C 28.3125 -9.757812 27.742188 -7.632812 26.609375 -5.71875 C 25.484375 -3.800781 23.941406 -2.285156 21.984375 -1.171875 C 20.035156 -0.0664062 17.8125 0.484375 15.3125 0.484375 Z M 15.3125 -4.84375 C 16.675781 -4.84375 17.90625 -5.164062 19 -5.8125 C 20.09375 -6.457031 20.957031 -7.332031 21.59375 -8.4375 C 22.238281 -9.550781 22.5625 -10.769531 22.5625 -12.09375 C 22.5625 -13.46875 22.238281 -14.695312 21.59375 -15.78125 C 20.957031 -16.875 20.09375 -17.742188 19 -18.390625 C 17.90625 -19.035156 16.675781 -19.359375 15.3125 -19.359375 C 13.25 -19.359375 11.519531 -18.648438 10.125 -17.234375 C 8.738281 -15.828125 8.046875 -14.113281 8.046875 -12.09375 C 8.046875 -10.082031 8.738281 -8.367188 10.125 -6.953125 C 11.519531 -5.546875 13.25 -4.84375 15.3125 -4.84375 Z M 15.3125 -4.84375 "/></g></g></g><g fill="#000000" fill-opacity="1"><g transform="translate(106.368126, 102.564985)"><g><path d="M 30.078125 -36.296875 L 35.9375 -36.296875 L 35.9375 0 L 30.015625 0 L 9.921875 -26.984375 L 9.921875 0 L 4 0 L 4 -36.296875 L 9.921875 -36.296875 L 30.078125 -9.375 Z M 30.078125 -36.296875 "/></g></g></g><g fill="#000000" fill-opacity="1"><g transform="translate(146.295169, 102.564985)"><g><path d="M 28.015625 -12.21875 L 27.953125 -11.1875 L 8.109375 -11.1875 C 8.265625 -9.175781 9 -7.523438 10.3125 -6.234375 C 11.625 -4.941406 13.289062 -4.296875 15.3125 -4.296875 C 16.84375 -4.296875 18.179688 -4.675781 19.328125 -5.4375 C 20.484375 -6.207031 21.320312 -7.21875 21.84375 -8.46875 L 27.59375 -8.46875 C 26.90625 -5.84375 25.460938 -3.691406 23.265625 -2.015625 C 21.066406 -0.347656 18.414062 0.484375 15.3125 0.484375 C 12.8125 0.484375 10.582031 -0.0546875 8.625 -1.140625 C 6.664062 -2.234375 5.117188 -3.726562 3.984375 -5.625 C 2.859375 -7.519531 2.296875 -9.675781 2.296875 -12.09375 C 2.296875 -14.519531 2.859375 -16.679688 3.984375 -18.578125 C 5.117188 -20.472656 6.664062 -21.960938 8.625 -23.046875 C 10.582031 -24.140625 12.789062 -24.6875 15.25 -24.6875 C 17.707031 -24.6875 19.882812 -24.148438 21.78125 -23.078125 C 23.675781 -22.015625 25.175781 -20.546875 26.28125 -18.671875 C 27.394531 -16.796875 27.972656 -14.644531 28.015625 -12.21875 Z M 15.3125 -19.84375 C 13.695312 -19.84375 12.3125 -19.425781 11.15625 -18.59375 C 10.007812 -17.769531 9.15625 -16.675781 8.59375 -15.3125 L 21.71875 -15.3125 C 21.195312 -16.71875 20.390625 -17.820312 19.296875 -18.625 C 18.210938 -19.4375 16.882812 -19.84375 15.3125 -19.84375 Z M 15.3125 -19.84375 "/></g></g></g><g fill="#000000" fill-opacity="1"><g transform="translate(176.421932, 102.564985)"><g><path d="M 13.5 0.484375 C 10.3125 0.484375 7.816406 -0.359375 6.015625 -2.046875 C 4.222656 -3.742188 3.328125 -6.046875 3.328125 -8.953125 L 3.328125 -24.203125 L 9.015625 -24.203125 L 9.015625 -9.6875 C 9.015625 -8.1875 9.4375 -7.003906 10.28125 -6.140625 C 11.132812 -5.273438 12.207031 -4.84375 13.5 -4.84375 C 14.78125 -4.84375 15.84375 -5.273438 16.6875 -6.140625 C 17.539062 -7.003906 17.96875 -8.1875 17.96875 -9.6875 L 17.96875 -24.203125 L 23.65625 -24.203125 L 23.65625 -8.953125 C 23.65625 -6.046875 22.753906 -3.742188 20.953125 -2.046875 C 19.160156 -0.359375 16.675781 0.484375 13.5 0.484375 Z M 13.5 0.484375 "/></g></g></g><g fill="#000000" fill-opacity="1"><g transform="translate(203.402934, 102.564985)"><g><path d="M 17.1875 -24.6875 C 17.875 -24.6875 18.519531 -24.625 19.125 -24.5 L 19.125 -19.125 C 18.84375 -19.195312 18.53125 -19.253906 18.1875 -19.296875 C 17.84375 -19.335938 17.46875 -19.359375 17.0625 -19.359375 C 14.96875 -19.359375 13.222656 -18.710938 11.828125 -17.421875 C 10.429688 -16.128906 9.734375 -14.414062 9.734375 -12.28125 L 9.734375 0 L 4 0 L 4 -24.203125 L 9.734375 -24.203125 L 9.734375 -20.875 C 10.585938 -22.039062 11.648438 -22.96875 12.921875 -23.65625 C 14.191406 -24.34375 15.613281 -24.6875 17.1875 -24.6875 Z M 17.1875 -24.6875 "/></g></g></g><g fill="#000000" fill-opacity="1"><g transform="translate(222.580015, 102.564985)"><g><path d="M 30.375 -4.71875 L 31.703125 -4.71875 L 31.703125 0 C 31.140625 0.320312 30.492188 0.484375 29.765625 0.484375 C 28.273438 0.484375 26.960938 0.113281 25.828125 -0.625 C 24.703125 -1.375 23.835938 -2.351562 23.234375 -3.5625 C 22.222656 -2.3125 20.972656 -1.320312 19.484375 -0.59375 C 17.992188 0.125 16.359375 0.484375 14.578125 0.484375 C 12.316406 0.484375 10.25 -0.078125 8.375 -1.203125 C 6.5 -2.335938 5.015625 -3.851562 3.921875 -5.75 C 2.835938 -7.644531 2.296875 -9.757812 2.296875 -12.09375 C 2.296875 -14.4375 2.835938 -16.554688 3.921875 -18.453125 C 5.015625 -20.347656 6.5 -21.859375 8.375 -22.984375 C 10.25 -24.117188 12.316406 -24.6875 14.578125 -24.6875 C 16.109375 -24.6875 17.539062 -24.410156 18.875 -23.859375 C 20.207031 -23.316406 21.378906 -22.582031 22.390625 -21.65625 L 22.390625 -24.203125 L 28.140625 -24.203125 L 28.140625 -7.4375 C 28.140625 -6.394531 28.367188 -5.679688 28.828125 -5.296875 C 29.296875 -4.910156 29.8125 -4.71875 30.375 -4.71875 Z M 15.3125 -4.84375 C 16.644531 -4.84375 17.863281 -5.164062 18.96875 -5.8125 C 20.082031 -6.457031 20.957031 -7.332031 21.59375 -8.4375 C 22.238281 -9.550781 22.5625 -10.769531 22.5625 -12.09375 C 22.5625 -13.46875 22.238281 -14.695312 21.59375 -15.78125 C 20.957031 -16.875 20.082031 -17.742188 18.96875 -18.390625 C 17.863281 -19.035156 16.644531 -19.359375 15.3125 -19.359375 C 13.976562 -19.359375 12.753906 -19.035156 11.640625 -18.390625 C 10.535156 -17.742188 9.660156 -16.875 9.015625 -15.78125 C 8.367188 -14.695312 8.046875 -13.46875 8.046875 -12.09375 C 8.046875 -10.769531 8.367188 -9.550781 9.015625 -8.4375 C 9.660156 -7.332031 10.535156 -6.457031 11.640625 -5.8125 C 12.753906 -5.164062 13.976562 -4.84375 15.3125 -4.84375 Z M 15.3125 -4.84375 "/></g></g></g><g fill="#000000" fill-opacity="1"><g transform="translate(255.126599, 102.564985)"><g><path d="M 4 0 L 4 -43.078125 L 9.734375 -43.078125 L 9.734375 0 Z M 4 0 "/></g></g></g><g fill="#000000" fill-opacity="1"><g transform="translate(268.859088, 102.564985)"><g><path d="M 30.078125 -36.296875 L 35.9375 -36.296875 L 35.9375 0 L 30.015625 0 L 9.921875 -26.984375 L 9.921875 0 L 4 0 L 4 -36.296875 L 9.921875 -36.296875 L 30.078125 -9.375 Z M 30.078125 -36.296875 "/></g></g></g><g fill="#000000" fill-opacity="1"><g transform="translate(308.78613, 102.564985)"><g><path d="M 28.015625 -12.21875 L 27.953125 -11.1875 L 8.109375 -11.1875 C 8.265625 -9.175781 9 -7.523438 10.3125 -6.234375 C 11.625 -4.941406 13.289062 -4.296875 15.3125 -4.296875 C 16.84375 -4.296875 18.179688 -4.675781 19.328125 -5.4375 C 20.484375 -6.207031 21.320312 -7.21875 21.84375 -8.46875 L 27.59375 -8.46875 C 26.90625 -5.84375 25.460938 -3.691406 23.265625 -2.015625 C 21.066406 -0.347656 18.414062 0.484375 15.3125 0.484375 C 12.8125 0.484375 10.582031 -0.0546875 8.625 -1.140625 C 6.664062 -2.234375 5.117188 -3.726562 3.984375 -5.625 C 2.859375 -7.519531 2.296875 -9.675781 2.296875 -12.09375 C 2.296875 -14.519531 2.859375 -16.679688 3.984375 -18.578125 C 5.117188 -20.472656 6.664062 -21.960938 8.625 -23.046875 C 10.582031 -24.140625 12.789062 -24.6875 15.25 -24.6875 C 17.707031 -24.6875 19.882812 -24.148438 21.78125 -23.078125 C 23.675781 -22.015625 25.175781 -20.546875 26.28125 -18.671875 C 27.394531 -16.796875 27.972656 -14.644531 28.015625 -12.21875 Z M 15.3125 -19.84375 C 13.695312 -19.84375 12.3125 -19.425781 11.15625 -18.59375 C 10.007812 -17.769531 9.15625 -16.675781 8.59375 -15.3125 L 21.71875 -15.3125 C 21.195312 -16.71875 20.390625 -17.820312 19.296875 -18.625 C 18.210938 -19.4375 16.882812 -19.84375 15.3125 -19.84375 Z M 15.3125 -19.84375 "/></g></g></g><g fill="#000000" fill-opacity="1"><g transform="translate(338.912893, 102.564985)"><g><path d="M 16.828125 -19.359375 L 10.703125 -19.359375 L 10.703125 -8.171875 C 10.703125 -7.117188 11.015625 -6.28125 11.640625 -5.65625 C 12.265625 -5.03125 13.023438 -4.71875 13.921875 -4.71875 L 16.703125 -4.71875 L 16.703125 -0.296875 C 16.421875 -0.0976562 15.9375 0.078125 15.25 0.234375 C 14.5625 0.398438 13.875 0.484375 13.1875 0.484375 C 11.738281 0.484375 10.390625 0.128906 9.140625 -0.578125 C 7.890625 -1.285156 6.878906 -2.242188 6.109375 -3.453125 C 5.347656 -4.660156 4.96875 -6.007812 4.96875 -7.5 L 4.96875 -19.359375 L 0.96875 -19.359375 L 0.96875 -24.203125 L 4.96875 -24.203125 L 4.96875 -34.125 L 10.703125 -34.125 L 10.703125 -24.203125 L 16.828125 -24.203125 Z M 16.828125 -19.359375 "/></g></g></g><g mask="url(#12f0e70ac8)"><g transform="matrix(1, 0, 0, 1, 23, 30)"><g clip-path="url(#ad7dce10a3)"><g clip-path="url(#91d94b8178)"><g clip-path="url(#ea784dd4f9)"><g clip-path="url(#789b6d61bd)"><path fill="#051d40" d="M 126.738281 23.480469 L 87.730469 66.824219 L 93.640625 79.039062 L 93.609375 79.097656 L 71.261719 121.441406 L 55.890625 100.125 L 13.191406 137.191406 L 13.019531 136.996094 L 55.9375 99.738281 L 56.019531 99.855469 L 71.230469 120.949219 L 93.347656 79.03125 L 87.417969 66.78125 L 87.476562 66.714844 L 126.542969 23.304688 Z M 126.738281 23.480469 " fill-opacity="1" fill-rule="nonzero"/></g></g></g><g clip-path="url(#d0b5ad7a33)"><g clip-path="url(#a2a2705fd9)"><g clip-path="url(#ed9bd9ded8)"><path fill="#051d40" d="M 13.726562 134.882812 C 14.019531 134.964844 14.285156 135.101562 14.527344 135.289062 C 14.765625 135.476562 14.960938 135.703125 15.109375 135.96875 C 15.257812 136.238281 15.351562 136.519531 15.386719 136.824219 C 15.421875 137.125 15.398438 137.421875 15.316406 137.71875 C 15.234375 138.011719 15.097656 138.277344 14.910156 138.515625 C 14.71875 138.753906 14.492188 138.949219 14.226562 139.097656 C 13.960938 139.246094 13.675781 139.339844 13.375 139.375 C 13.070312 139.410156 12.773438 139.386719 12.480469 139.304688 C 12.1875 139.222656 11.921875 139.085938 11.683594 138.898438 C 11.441406 138.710938 11.25 138.480469 11.097656 138.214844 C 10.949219 137.949219 10.859375 137.667969 10.820312 137.363281 C 10.785156 137.0625 10.808594 136.761719 10.890625 136.46875 C 10.976562 136.175781 11.109375 135.910156 11.300781 135.671875 C 11.488281 135.433594 11.714844 135.238281 11.980469 135.089844 C 12.246094 134.941406 12.53125 134.847656 12.832031 134.8125 C 13.136719 134.777344 13.433594 134.800781 13.726562 134.882812 Z M 13.726562 134.882812 " fill-opacity="1" fill-rule="nonzero"/></g></g></g></g></g></g></svg>
