<svg xmlns="http://www.w3.org/2000/svg" xmlns:xlink="http://www.w3.org/1999/xlink" width="500" zoomAndPan="magnify" viewBox="0 0 375 195.000001" height="260" preserveAspectRatio="xMidYMid meet" version="1.0"><defs><filter x="0%" y="0%" width="100%" height="100%" id="ff41e034d0"><feColorMatrix values="0 0 0 0 1 0 0 0 0 1 0 0 0 0 1 0 0 0 1 0" color-interpolation-filters="sRGB"/></filter><g/><clipPath id="1f7ffc2d4e"><path d="M 0.957031 0 L 374.042969 0 L 374.042969 194.003906 L 0.957031 194.003906 Z M 0.957031 0 " clip-rule="nonzero"/></clipPath><clipPath id="6a533d66e9"><path d="M 0.957031 1 L 374 1 L 374 193 L 0.957031 193 Z M 0.957031 1 " clip-rule="nonzero"/></clipPath><mask id="5d91bd1266"><g filter="url(#ff41e034d0)"><rect x="-37.5" width="450" fill="#000000" y="-19.5" height="234.000001" fill-opacity="0.5"/></g></mask><clipPath id="1c0ca74355"><path d="M 0.957031 139 L 5 139 L 5 144 L 0.957031 144 Z M 0.957031 139 " clip-rule="nonzero"/></clipPath><clipPath id="300f6c2379"><path d="M 7 186 L 13 186 L 13 191.453125 L 7 191.453125 Z M 7 186 " clip-rule="nonzero"/></clipPath><clipPath id="9d8e0c9afc"><path d="M 312 0.796875 L 318 0.796875 L 318 6 L 312 6 Z M 312 0.796875 " clip-rule="nonzero"/></clipPath><clipPath id="d4d4952fd3"><path d="M 368 156 L 373.4375 156 L 373.4375 162 L 368 162 Z M 368 156 " clip-rule="nonzero"/></clipPath><clipPath id="83b2a14d95"><path d="M 338 0.796875 L 344 0.796875 L 344 6 L 338 6 Z M 338 0.796875 " clip-rule="nonzero"/></clipPath><clipPath id="c89976e454"><rect x="0" width="374" y="0" height="192"/></clipPath></defs><g clip-path="url(#1f7ffc2d4e)"><path fill="#ffffff" d="M 0.957031 0 L 374.042969 0 L 374.042969 194.003906 L 0.957031 194.003906 Z M 0.957031 0 " fill-opacity="1" fill-rule="nonzero"/><path fill="#ffffff" d="M 0.957031 0 L 374.042969 0 L 374.042969 194.003906 L 0.957031 194.003906 Z M 0.957031 0 " fill-opacity="1" fill-rule="nonzero"/></g><g clip-path="url(#6a533d66e9)"><g mask="url(#5d91bd1266)"><g transform="matrix(1, 0, 0, 1, 0.000000000000000111, 1)"><g clip-path="url(#c89976e454)"><path fill="#051d40" d="M 182.109375 92.46875 L 129.710938 66.636719 L 119.539062 75.65625 L 119.476562 75.640625 L 72.566406 65.601562 L 88.945312 44.988281 L 41.597656 13.886719 L 41.742188 13.664062 L 89.328125 44.925781 L 89.242188 45.035156 L 73.035156 65.433594 L 119.464844 75.371094 L 129.667969 66.324219 L 129.746094 66.363281 L 182.222656 92.234375 Z M 182.109375 92.46875 " fill-opacity="1" fill-rule="nonzero"/><path fill="#051d40" d="M 91.148438 45.046875 C 91.148438 45.351562 91.089844 45.644531 90.972656 45.929688 C 90.855469 46.210938 90.691406 46.457031 90.472656 46.675781 C 90.257812 46.890625 90.007812 47.058594 89.726562 47.171875 C 89.445312 47.289062 89.152344 47.347656 88.847656 47.347656 C 88.542969 47.347656 88.246094 47.289062 87.964844 47.171875 C 87.683594 47.058594 87.433594 46.890625 87.21875 46.675781 C 87.003906 46.457031 86.835938 46.210938 86.71875 45.929688 C 86.601562 45.644531 86.542969 45.351562 86.542969 45.046875 C 86.542969 44.742188 86.601562 44.449219 86.71875 44.167969 C 86.835938 43.882812 87.003906 43.636719 87.21875 43.417969 C 87.433594 43.203125 87.683594 43.035156 87.964844 42.921875 C 88.246094 42.804688 88.542969 42.746094 88.847656 42.746094 C 89.152344 42.746094 89.445312 42.804688 89.726562 42.921875 C 90.007812 43.035156 90.257812 43.203125 90.472656 43.417969 C 90.691406 43.636719 90.855469 43.882812 90.972656 44.167969 C 91.089844 44.449219 91.148438 44.742188 91.148438 45.046875 Z M 91.148438 45.046875 " fill-opacity="1" fill-rule="nonzero"/><path fill="#051d40" d="M 106 45.046875 C 106 45.351562 105.941406 45.644531 105.824219 45.929688 C 105.707031 46.210938 105.539062 46.457031 105.324219 46.675781 C 105.109375 46.890625 104.859375 47.058594 104.578125 47.171875 C 104.296875 47.289062 104 47.347656 103.695312 47.347656 C 103.390625 47.347656 103.097656 47.289062 102.816406 47.171875 C 102.535156 47.058594 102.285156 46.890625 102.070312 46.675781 C 101.851562 46.457031 101.6875 46.210938 101.570312 45.929688 C 101.453125 45.644531 101.394531 45.351562 101.394531 45.046875 C 101.394531 44.742188 101.453125 44.449219 101.570312 44.167969 C 101.6875 43.882812 101.851562 43.636719 102.070312 43.417969 C 102.285156 43.203125 102.535156 43.035156 102.816406 42.921875 C 103.097656 42.804688 103.390625 42.746094 103.695312 42.746094 C 104 42.746094 104.296875 42.804688 104.578125 42.921875 C 104.859375 43.035156 105.109375 43.203125 105.324219 43.417969 C 105.539062 43.636719 105.707031 43.882812 105.824219 44.167969 C 105.941406 44.449219 106 44.742188 106 45.046875 Z M 106 45.046875 " fill-opacity="1" fill-rule="nonzero"/><path fill="#051d40" d="M 117.007812 60.328125 C 117.007812 60.632812 116.949219 60.929688 116.832031 61.210938 C 116.714844 61.492188 116.546875 61.742188 116.332031 61.957031 C 116.117188 62.171875 115.867188 62.339844 115.585938 62.457031 C 115.304688 62.574219 115.007812 62.632812 114.703125 62.632812 C 114.398438 62.632812 114.105469 62.574219 113.824219 62.457031 C 113.542969 62.339844 113.292969 62.171875 113.078125 61.957031 C 112.859375 61.742188 112.695312 61.492188 112.578125 61.210938 C 112.460938 60.929688 112.402344 60.632812 112.402344 60.328125 C 112.402344 60.023438 112.460938 59.730469 112.578125 59.449219 C 112.695312 59.167969 112.859375 58.917969 113.078125 58.703125 C 113.292969 58.484375 113.542969 58.320312 113.824219 58.203125 C 114.105469 58.085938 114.398438 58.027344 114.703125 58.027344 C 115.007812 58.027344 115.304688 58.085938 115.585938 58.203125 C 115.867188 58.320312 116.117188 58.484375 116.332031 58.703125 C 116.546875 58.917969 116.714844 59.167969 116.832031 59.449219 C 116.949219 59.730469 117.007812 60.023438 117.007812 60.328125 Z M 117.007812 60.328125 " fill-opacity="1" fill-rule="nonzero"/><path fill="#051d40" d="M 60.6875 24.964844 C 60.6875 25.269531 60.628906 25.5625 60.511719 25.84375 C 60.394531 26.125 60.226562 26.375 60.011719 26.589844 C 59.796875 26.808594 59.546875 26.972656 59.265625 27.089844 C 58.984375 27.207031 58.691406 27.265625 58.386719 27.265625 C 58.078125 27.265625 57.785156 27.207031 57.503906 27.089844 C 57.222656 26.972656 56.972656 26.808594 56.757812 26.589844 C 56.542969 26.375 56.375 26.125 56.257812 25.84375 C 56.140625 25.5625 56.082031 25.269531 56.082031 24.964844 C 56.082031 24.65625 56.140625 24.363281 56.257812 24.082031 C 56.375 23.800781 56.542969 23.550781 56.757812 23.335938 C 56.972656 23.121094 57.222656 22.953125 57.503906 22.835938 C 57.785156 22.71875 58.078125 22.660156 58.386719 22.660156 C 58.691406 22.660156 58.984375 22.71875 59.265625 22.835938 C 59.546875 22.953125 59.796875 23.121094 60.011719 23.335938 C 60.226562 23.550781 60.394531 23.800781 60.511719 24.082031 C 60.628906 24.363281 60.6875 24.65625 60.6875 24.964844 Z M 60.6875 24.964844 " fill-opacity="1" fill-rule="nonzero"/><path fill="#051d40" d="M 66.09375 15.449219 C 66.09375 15.753906 66.035156 16.046875 65.917969 16.328125 C 65.800781 16.613281 65.632812 16.859375 65.417969 17.078125 C 65.203125 17.292969 64.953125 17.457031 64.671875 17.574219 C 64.390625 17.691406 64.097656 17.75 63.789062 17.75 C 63.484375 17.75 63.191406 17.691406 62.910156 17.574219 C 62.628906 17.457031 62.378906 17.292969 62.164062 17.078125 C 61.945312 16.859375 61.78125 16.613281 61.664062 16.328125 C 61.546875 16.046875 61.488281 15.753906 61.488281 15.449219 C 61.488281 15.144531 61.546875 14.851562 61.664062 14.566406 C 61.78125 14.285156 61.945312 14.035156 62.164062 13.820312 C 62.378906 13.605469 62.628906 13.4375 62.910156 13.320312 C 63.191406 13.207031 63.484375 13.148438 63.789062 13.148438 C 64.097656 13.148438 64.390625 13.207031 64.671875 13.320312 C 64.953125 13.4375 65.203125 13.605469 65.417969 13.820312 C 65.632812 14.035156 65.800781 14.285156 65.917969 14.566406 C 66.035156 14.851562 66.09375 15.144531 66.09375 15.449219 Z M 66.09375 15.449219 " fill-opacity="1" fill-rule="nonzero"/><path fill="#051d40" d="M 43.96875 13.777344 C 43.96875 14.082031 43.910156 14.375 43.796875 14.65625 C 43.679688 14.9375 43.511719 15.1875 43.296875 15.402344 C 43.082031 15.617188 42.832031 15.785156 42.550781 15.902344 C 42.265625 16.019531 41.972656 16.078125 41.667969 16.078125 C 41.363281 16.078125 41.070312 16.019531 40.789062 15.902344 C 40.503906 15.785156 40.257812 15.617188 40.039062 15.402344 C 39.824219 15.1875 39.660156 14.9375 39.542969 14.65625 C 39.425781 14.375 39.367188 14.082031 39.367188 13.777344 C 39.367188 13.46875 39.425781 13.175781 39.542969 12.894531 C 39.660156 12.613281 39.824219 12.363281 40.039062 12.148438 C 40.257812 11.933594 40.503906 11.765625 40.789062 11.648438 C 41.070312 11.53125 41.363281 11.472656 41.667969 11.472656 C 41.972656 11.472656 42.265625 11.53125 42.550781 11.648438 C 42.832031 11.765625 43.082031 11.933594 43.296875 12.148438 C 43.511719 12.363281 43.679688 12.613281 43.796875 12.894531 C 43.910156 13.175781 43.96875 13.46875 43.96875 13.777344 Z M 43.96875 13.777344 " fill-opacity="1" fill-rule="nonzero"/><path fill="#051d40" d="M 12.453125 44.332031 C 12.453125 44.636719 12.394531 44.933594 12.277344 45.214844 C 12.160156 45.496094 11.992188 45.746094 11.777344 45.960938 C 11.5625 46.175781 11.3125 46.34375 11.03125 46.460938 C 10.75 46.578125 10.457031 46.632812 10.148438 46.632812 C 9.84375 46.632812 9.550781 46.578125 9.269531 46.460938 C 8.988281 46.34375 8.738281 46.175781 8.523438 45.960938 C 8.304688 45.746094 8.140625 45.496094 8.023438 45.214844 C 7.90625 44.933594 7.847656 44.636719 7.847656 44.332031 C 7.847656 44.027344 7.90625 43.734375 8.023438 43.453125 C 8.140625 43.167969 8.304688 42.921875 8.523438 42.703125 C 8.738281 42.488281 8.988281 42.324219 9.269531 42.207031 C 9.550781 42.089844 9.84375 42.03125 10.148438 42.03125 C 10.457031 42.03125 10.75 42.089844 11.03125 42.207031 C 11.3125 42.324219 11.5625 42.488281 11.777344 42.703125 C 11.992188 42.921875 12.160156 43.167969 12.277344 43.453125 C 12.394531 43.734375 12.453125 44.027344 12.453125 44.332031 Z M 12.453125 44.332031 " fill-opacity="1" fill-rule="nonzero"/><path fill="#051d40" d="M 13.988281 77.808594 C 13.988281 78.113281 13.929688 78.410156 13.8125 78.691406 C 13.695312 78.972656 13.53125 79.222656 13.316406 79.4375 C 13.097656 79.652344 12.851562 79.820312 12.566406 79.9375 C 12.285156 80.054688 11.992188 80.113281 11.6875 80.113281 C 11.382812 80.113281 11.089844 80.054688 10.804688 79.9375 C 10.523438 79.820312 10.273438 79.652344 10.058594 79.4375 C 9.84375 79.222656 9.675781 78.972656 9.558594 78.691406 C 9.445312 78.410156 9.386719 78.113281 9.386719 77.808594 C 9.386719 77.503906 9.445312 77.210938 9.558594 76.929688 C 9.675781 76.648438 9.84375 76.398438 10.058594 76.183594 C 10.273438 75.964844 10.523438 75.800781 10.804688 75.683594 C 11.089844 75.566406 11.382812 75.507812 11.6875 75.507812 C 11.992188 75.507812 12.285156 75.566406 12.566406 75.683594 C 12.851562 75.800781 13.097656 75.964844 13.316406 76.183594 C 13.53125 76.398438 13.695312 76.648438 13.8125 76.929688 C 13.929688 77.210938 13.988281 77.503906 13.988281 77.808594 Z M 13.988281 77.808594 " fill-opacity="1" fill-rule="nonzero"/><g clip-path="url(#1c0ca74355)"><path fill="#051d40" d="M 4.8125 141.671875 C 4.8125 141.976562 4.753906 142.273438 4.636719 142.554688 C 4.519531 142.835938 4.355469 143.085938 4.136719 143.300781 C 3.921875 143.515625 3.671875 143.683594 3.390625 143.800781 C 3.109375 143.917969 2.816406 143.976562 2.511719 143.976562 C 2.207031 143.976562 1.910156 143.917969 1.628906 143.800781 C 1.347656 143.683594 1.097656 143.515625 0.882812 143.300781 C 0.667969 143.085938 0.5 142.835938 0.382812 142.554688 C 0.265625 142.273438 0.207031 141.976562 0.207031 141.671875 C 0.207031 141.367188 0.265625 141.074219 0.382812 140.792969 C 0.5 140.511719 0.667969 140.261719 0.882812 140.046875 C 1.097656 139.828125 1.347656 139.664062 1.628906 139.546875 C 1.910156 139.429688 2.207031 139.371094 2.511719 139.371094 C 2.816406 139.371094 3.109375 139.429688 3.390625 139.546875 C 3.671875 139.664062 3.921875 139.828125 4.136719 140.046875 C 4.355469 140.261719 4.519531 140.511719 4.636719 140.792969 C 4.753906 141.074219 4.8125 141.367188 4.8125 141.671875 Z M 4.8125 141.671875 " fill-opacity="1" fill-rule="nonzero"/></g><path fill="#051d40" d="M 19.660156 148.277344 C 19.660156 148.585938 19.601562 148.878906 19.484375 149.160156 C 19.367188 149.441406 19.199219 149.691406 18.984375 149.90625 C 18.769531 150.121094 18.519531 150.289062 18.238281 150.40625 C 17.957031 150.523438 17.664062 150.582031 17.355469 150.582031 C 17.050781 150.582031 16.757812 150.523438 16.476562 150.40625 C 16.195312 150.289062 15.945312 150.121094 15.730469 149.90625 C 15.511719 149.691406 15.347656 149.441406 15.230469 149.160156 C 15.113281 148.878906 15.054688 148.585938 15.054688 148.277344 C 15.054688 147.972656 15.113281 147.679688 15.230469 147.398438 C 15.347656 147.117188 15.511719 146.867188 15.730469 146.652344 C 15.945312 146.433594 16.195312 146.269531 16.476562 146.152344 C 16.757812 146.035156 17.050781 145.976562 17.355469 145.976562 C 17.664062 145.976562 17.957031 146.035156 18.238281 146.152344 C 18.519531 146.269531 18.769531 146.433594 18.984375 146.652344 C 19.199219 146.867188 19.367188 147.117188 19.484375 147.398438 C 19.601562 147.679688 19.660156 147.972656 19.660156 148.277344 Z M 19.660156 148.277344 " fill-opacity="1" fill-rule="nonzero"/><g clip-path="url(#300f6c2379)"><path fill="#051d40" d="M 12.050781 188.902344 C 12.050781 189.207031 11.992188 189.5 11.875 189.78125 C 11.757812 190.066406 11.59375 190.3125 11.378906 190.53125 C 11.160156 190.746094 10.914062 190.910156 10.628906 191.027344 C 10.347656 191.144531 10.054688 191.203125 9.75 191.203125 C 9.445312 191.203125 9.152344 191.144531 8.867188 191.027344 C 8.585938 190.910156 8.339844 190.746094 8.121094 190.53125 C 7.90625 190.3125 7.738281 190.066406 7.625 189.78125 C 7.507812 189.5 7.449219 189.207031 7.449219 188.902344 C 7.449219 188.597656 7.507812 188.300781 7.625 188.019531 C 7.738281 187.738281 7.90625 187.488281 8.121094 187.273438 C 8.339844 187.058594 8.585938 186.890625 8.867188 186.773438 C 9.152344 186.65625 9.445312 186.601562 9.75 186.601562 C 10.054688 186.601562 10.347656 186.65625 10.628906 186.773438 C 10.914062 186.890625 11.160156 187.058594 11.378906 187.273438 C 11.59375 187.488281 11.757812 187.738281 11.875 188.019531 C 11.992188 188.300781 12.050781 188.597656 12.050781 188.902344 Z M 12.050781 188.902344 " fill-opacity="1" fill-rule="nonzero"/></g><path fill="#051d40" d="M 39.40625 62.632812 C 39.40625 62.9375 39.347656 63.230469 39.230469 63.511719 C 39.113281 63.796875 38.949219 64.042969 38.730469 64.261719 C 38.515625 64.476562 38.265625 64.640625 37.984375 64.757812 C 37.703125 64.875 37.410156 64.933594 37.105469 64.933594 C 36.796875 64.933594 36.503906 64.875 36.222656 64.757812 C 35.941406 64.640625 35.691406 64.476562 35.476562 64.261719 C 35.261719 64.042969 35.09375 63.796875 34.976562 63.511719 C 34.859375 63.230469 34.800781 62.9375 34.800781 62.632812 C 34.800781 62.328125 34.859375 62.03125 34.976562 61.75 C 35.09375 61.46875 35.261719 61.21875 35.476562 61.003906 C 35.691406 60.789062 35.941406 60.621094 36.222656 60.503906 C 36.503906 60.386719 36.796875 60.332031 37.105469 60.332031 C 37.410156 60.332031 37.703125 60.386719 37.984375 60.503906 C 38.265625 60.621094 38.515625 60.789062 38.730469 61.003906 C 38.949219 61.21875 39.113281 61.46875 39.230469 61.75 C 39.347656 62.03125 39.40625 62.328125 39.40625 62.632812 Z M 39.40625 62.632812 " fill-opacity="1" fill-rule="nonzero"/><path fill="#051d40" d="M 39.40625 104.816406 C 39.40625 105.121094 39.347656 105.414062 39.230469 105.699219 C 39.113281 105.980469 38.949219 106.226562 38.730469 106.445312 C 38.515625 106.660156 38.265625 106.828125 37.984375 106.941406 C 37.703125 107.058594 37.410156 107.117188 37.105469 107.117188 C 36.796875 107.117188 36.503906 107.058594 36.222656 106.941406 C 35.941406 106.828125 35.691406 106.660156 35.476562 106.445312 C 35.261719 106.226562 35.09375 105.980469 34.976562 105.699219 C 34.859375 105.414062 34.800781 105.121094 34.800781 104.816406 C 34.800781 104.511719 34.859375 104.21875 34.976562 103.933594 C 35.09375 103.652344 35.261719 103.40625 35.476562 103.1875 C 35.691406 102.972656 35.941406 102.804688 36.222656 102.691406 C 36.503906 102.574219 36.796875 102.515625 37.105469 102.515625 C 37.410156 102.515625 37.703125 102.574219 37.984375 102.691406 C 38.265625 102.804688 38.515625 102.972656 38.730469 103.1875 C 38.949219 103.40625 39.113281 103.652344 39.230469 103.933594 C 39.347656 104.21875 39.40625 104.511719 39.40625 104.816406 Z M 39.40625 104.816406 " fill-opacity="1" fill-rule="nonzero"/><path fill="#051d40" d="M 47.824219 158.824219 C 47.824219 159.128906 47.765625 159.425781 47.648438 159.707031 C 47.53125 159.988281 47.367188 160.238281 47.148438 160.453125 C 46.933594 160.667969 46.683594 160.835938 46.402344 160.953125 C 46.121094 161.070312 45.828125 161.125 45.523438 161.125 C 45.214844 161.125 44.921875 161.070312 44.640625 160.953125 C 44.359375 160.835938 44.109375 160.667969 43.894531 160.453125 C 43.679688 160.238281 43.511719 159.988281 43.394531 159.707031 C 43.277344 159.425781 43.21875 159.128906 43.21875 158.824219 C 43.21875 158.519531 43.277344 158.226562 43.394531 157.945312 C 43.511719 157.660156 43.679688 157.414062 43.894531 157.199219 C 44.109375 156.980469 44.359375 156.816406 44.640625 156.699219 C 44.921875 156.582031 45.214844 156.523438 45.523438 156.523438 C 45.828125 156.523438 46.121094 156.582031 46.402344 156.699219 C 46.683594 156.816406 46.933594 156.980469 47.148438 157.199219 C 47.367188 157.414062 47.53125 157.660156 47.648438 157.945312 C 47.765625 158.226562 47.824219 158.519531 47.824219 158.824219 Z M 47.824219 158.824219 " fill-opacity="1" fill-rule="nonzero"/><path fill="#051d40" d="M 101.386719 130.429688 C 101.386719 130.734375 101.328125 131.027344 101.210938 131.308594 C 101.09375 131.59375 100.925781 131.839844 100.710938 132.058594 C 100.496094 132.273438 100.246094 132.4375 99.964844 132.554688 C 99.683594 132.671875 99.386719 132.730469 99.082031 132.730469 C 98.777344 132.730469 98.484375 132.671875 98.203125 132.554688 C 97.921875 132.4375 97.671875 132.273438 97.457031 132.058594 C 97.238281 131.839844 97.074219 131.59375 96.957031 131.308594 C 96.839844 131.027344 96.78125 130.734375 96.78125 130.429688 C 96.78125 130.125 96.839844 129.832031 96.957031 129.546875 C 97.074219 129.265625 97.238281 129.019531 97.457031 128.800781 C 97.671875 128.585938 97.921875 128.417969 98.203125 128.304688 C 98.484375 128.1875 98.777344 128.128906 99.082031 128.128906 C 99.386719 128.128906 99.683594 128.1875 99.964844 128.300781 C 100.246094 128.417969 100.496094 128.585938 100.710938 128.800781 C 100.925781 129.019531 101.09375 129.265625 101.210938 129.546875 C 101.328125 129.832031 101.386719 130.125 101.386719 130.429688 Z M 101.386719 130.429688 " fill-opacity="1" fill-rule="nonzero"/><path fill="#051d40" d="M 125.601562 85.9375 C 125.601562 86.246094 125.542969 86.539062 125.425781 86.820312 C 125.308594 87.101562 125.140625 87.351562 124.925781 87.566406 C 124.710938 87.78125 124.460938 87.949219 124.179688 88.066406 C 123.898438 88.183594 123.605469 88.242188 123.296875 88.242188 C 122.992188 88.242188 122.699219 88.183594 122.417969 88.066406 C 122.136719 87.949219 121.886719 87.78125 121.671875 87.566406 C 121.457031 87.351562 121.289062 87.101562 121.171875 86.820312 C 121.054688 86.539062 120.996094 86.246094 120.996094 85.9375 C 120.996094 85.632812 121.054688 85.339844 121.171875 85.058594 C 121.289062 84.777344 121.457031 84.527344 121.671875 84.3125 C 121.886719 84.09375 122.136719 83.929688 122.417969 83.8125 C 122.699219 83.695312 122.992188 83.636719 123.296875 83.636719 C 123.605469 83.636719 123.898438 83.695312 124.179688 83.8125 C 124.460938 83.929688 124.710938 84.09375 124.925781 84.3125 C 125.140625 84.527344 125.308594 84.777344 125.425781 85.058594 C 125.542969 85.339844 125.601562 85.632812 125.601562 85.9375 Z M 125.601562 85.9375 " fill-opacity="1" fill-rule="nonzero"/><path fill="#051d40" d="M 92.160156 85.9375 C 92.160156 86.246094 92.101562 86.539062 91.984375 86.820312 C 91.867188 87.101562 91.703125 87.351562 91.484375 87.566406 C 91.269531 87.78125 91.019531 87.949219 90.738281 88.066406 C 90.457031 88.183594 90.164062 88.242188 89.859375 88.242188 C 89.554688 88.242188 89.257812 88.183594 88.976562 88.066406 C 88.695312 87.949219 88.445312 87.78125 88.230469 87.566406 C 88.015625 87.351562 87.847656 87.101562 87.730469 86.820312 C 87.613281 86.539062 87.554688 86.246094 87.554688 85.9375 C 87.554688 85.632812 87.613281 85.339844 87.730469 85.058594 C 87.847656 84.777344 88.015625 84.527344 88.230469 84.3125 C 88.445312 84.09375 88.695312 83.929688 88.976562 83.8125 C 89.257812 83.695312 89.554688 83.636719 89.859375 83.636719 C 90.164062 83.636719 90.457031 83.695312 90.738281 83.8125 C 91.019531 83.929688 91.269531 84.09375 91.484375 84.3125 C 91.703125 84.527344 91.867188 84.777344 91.984375 85.058594 C 92.101562 85.339844 92.160156 85.632812 92.160156 85.9375 Z M 92.160156 85.9375 " fill-opacity="1" fill-rule="nonzero"/><path fill="#051d40" d="M 84.234375 121.253906 C 84.234375 121.558594 84.175781 121.851562 84.058594 122.132812 C 83.941406 122.414062 83.773438 122.664062 83.558594 122.878906 C 83.34375 123.097656 83.09375 123.261719 82.8125 123.378906 C 82.53125 123.496094 82.234375 123.554688 81.929688 123.554688 C 81.625 123.554688 81.332031 123.496094 81.050781 123.378906 C 80.769531 123.261719 80.519531 123.097656 80.304688 122.878906 C 80.085938 122.664062 79.921875 122.414062 79.804688 122.132812 C 79.6875 121.851562 79.628906 121.558594 79.628906 121.253906 C 79.628906 120.949219 79.6875 120.652344 79.804688 120.371094 C 79.921875 120.089844 80.085938 119.839844 80.304688 119.625 C 80.519531 119.410156 80.769531 119.242188 81.050781 119.125 C 81.332031 119.007812 81.625 118.953125 81.929688 118.953125 C 82.234375 118.953125 82.53125 119.007812 82.8125 119.125 C 83.09375 119.242188 83.34375 119.410156 83.558594 119.625 C 83.773438 119.839844 83.941406 120.089844 84.058594 120.371094 C 84.175781 120.652344 84.234375 120.949219 84.234375 121.253906 Z M 84.234375 121.253906 " fill-opacity="1" fill-rule="nonzero"/><path fill="#051d40" d="M 134.34375 94.972656 C 134.34375 95.277344 134.285156 95.570312 134.171875 95.851562 C 134.054688 96.132812 133.886719 96.382812 133.671875 96.597656 C 133.457031 96.816406 133.207031 96.980469 132.925781 97.097656 C 132.640625 97.214844 132.347656 97.273438 132.042969 97.273438 C 131.738281 97.273438 131.445312 97.214844 131.164062 97.097656 C 130.878906 96.980469 130.632812 96.816406 130.414062 96.597656 C 130.199219 96.382812 130.035156 96.132812 129.917969 95.851562 C 129.800781 95.570312 129.742188 95.277344 129.742188 94.972656 C 129.742188 94.667969 129.800781 94.371094 129.917969 94.089844 C 130.035156 93.808594 130.199219 93.558594 130.414062 93.34375 C 130.632812 93.128906 130.878906 92.960938 131.164062 92.84375 C 131.445312 92.726562 131.738281 92.667969 132.042969 92.667969 C 132.347656 92.667969 132.640625 92.726562 132.925781 92.84375 C 133.207031 92.960938 133.457031 93.128906 133.671875 93.34375 C 133.886719 93.558594 134.054688 93.808594 134.171875 94.089844 C 134.285156 94.371094 134.34375 94.667969 134.34375 94.972656 Z M 134.34375 94.972656 " fill-opacity="1" fill-rule="nonzero"/><path fill="#051d40" d="M 145.589844 112.699219 C 145.589844 113.003906 145.53125 113.300781 145.414062 113.582031 C 145.296875 113.863281 145.128906 114.113281 144.914062 114.328125 C 144.699219 114.542969 144.449219 114.710938 144.167969 114.828125 C 143.886719 114.945312 143.589844 115.003906 143.285156 115.003906 C 142.980469 115.003906 142.6875 114.945312 142.40625 114.828125 C 142.125 114.710938 141.875 114.542969 141.660156 114.328125 C 141.441406 114.113281 141.277344 113.863281 141.160156 113.582031 C 141.042969 113.300781 140.984375 113.003906 140.984375 112.699219 C 140.984375 112.394531 141.042969 112.101562 141.160156 111.820312 C 141.277344 111.539062 141.441406 111.289062 141.660156 111.074219 C 141.875 110.855469 142.125 110.691406 142.40625 110.574219 C 142.6875 110.457031 142.980469 110.398438 143.285156 110.398438 C 143.589844 110.398438 143.886719 110.457031 144.167969 110.574219 C 144.449219 110.691406 144.699219 110.855469 144.914062 111.074219 C 145.128906 111.289062 145.296875 111.539062 145.414062 111.820312 C 145.53125 112.101562 145.589844 112.394531 145.589844 112.699219 Z M 145.589844 112.699219 " fill-opacity="1" fill-rule="nonzero"/><path fill="#051d40" d="M 74.910156 65.515625 C 74.910156 65.820312 74.851562 66.113281 74.734375 66.394531 C 74.617188 66.675781 74.449219 66.925781 74.234375 67.140625 C 74.019531 67.359375 73.769531 67.523438 73.488281 67.640625 C 73.207031 67.757812 72.910156 67.816406 72.605469 67.816406 C 72.300781 67.816406 72.007812 67.757812 71.726562 67.640625 C 71.445312 67.523438 71.195312 67.359375 70.980469 67.140625 C 70.761719 66.925781 70.597656 66.675781 70.480469 66.394531 C 70.363281 66.113281 70.304688 65.820312 70.304688 65.515625 C 70.304688 65.210938 70.363281 64.914062 70.480469 64.632812 C 70.597656 64.351562 70.761719 64.101562 70.980469 63.886719 C 71.195312 63.671875 71.445312 63.503906 71.726562 63.386719 C 72.007812 63.269531 72.300781 63.210938 72.605469 63.210938 C 72.910156 63.210938 73.207031 63.269531 73.488281 63.386719 C 73.769531 63.503906 74.019531 63.671875 74.234375 63.886719 C 74.449219 64.101562 74.617188 64.351562 74.734375 64.632812 C 74.851562 64.914062 74.910156 65.210938 74.910156 65.515625 Z M 74.910156 65.515625 " fill-opacity="1" fill-rule="nonzero"/><path fill="#051d40" d="M 121.609375 75.507812 C 121.609375 75.8125 121.550781 76.105469 121.433594 76.390625 C 121.316406 76.671875 121.152344 76.917969 120.9375 77.136719 C 120.71875 77.351562 120.472656 77.519531 120.1875 77.632812 C 119.90625 77.75 119.613281 77.808594 119.308594 77.808594 C 119.003906 77.808594 118.707031 77.75 118.425781 77.632812 C 118.144531 77.519531 117.894531 77.351562 117.679688 77.136719 C 117.464844 76.917969 117.296875 76.671875 117.179688 76.390625 C 117.0625 76.105469 117.007812 75.8125 117.007812 75.507812 C 117.007812 75.203125 117.0625 74.910156 117.179688 74.628906 C 117.296875 74.34375 117.464844 74.097656 117.679688 73.878906 C 117.894531 73.664062 118.144531 73.5 118.425781 73.382812 C 118.707031 73.265625 119.003906 73.207031 119.308594 73.207031 C 119.613281 73.207031 119.90625 73.265625 120.1875 73.382812 C 120.472656 73.5 120.71875 73.664062 120.9375 73.878906 C 121.152344 74.097656 121.316406 74.34375 121.433594 74.628906 C 121.550781 74.910156 121.609375 75.203125 121.609375 75.507812 Z M 121.609375 75.507812 " fill-opacity="1" fill-rule="nonzero"/><path fill="#051d40" d="M 131.953125 66.570312 C 131.953125 66.875 131.894531 67.171875 131.777344 67.453125 C 131.660156 67.734375 131.492188 67.984375 131.277344 68.199219 C 131.0625 68.414062 130.8125 68.582031 130.53125 68.699219 C 130.25 68.816406 129.953125 68.875 129.648438 68.875 C 129.34375 68.875 129.050781 68.816406 128.769531 68.699219 C 128.488281 68.582031 128.238281 68.414062 128.023438 68.199219 C 127.804688 67.984375 127.640625 67.734375 127.523438 67.453125 C 127.40625 67.171875 127.347656 66.875 127.347656 66.570312 C 127.347656 66.265625 127.40625 65.972656 127.523438 65.691406 C 127.640625 65.410156 127.804688 65.160156 128.023438 64.945312 C 128.238281 64.726562 128.488281 64.5625 128.769531 64.445312 C 129.050781 64.328125 129.34375 64.269531 129.648438 64.269531 C 129.953125 64.269531 130.25 64.328125 130.53125 64.445312 C 130.8125 64.5625 131.0625 64.726562 131.277344 64.945312 C 131.492188 65.160156 131.660156 65.410156 131.777344 65.691406 C 131.894531 65.972656 131.953125 66.265625 131.953125 66.570312 Z M 131.953125 66.570312 " fill-opacity="1" fill-rule="nonzero"/><path fill="#051d40" d="M 184.46875 92.351562 C 184.46875 92.65625 184.410156 92.949219 184.292969 93.230469 C 184.175781 93.515625 184.007812 93.761719 183.792969 93.980469 C 183.578125 94.195312 183.328125 94.359375 183.046875 94.476562 C 182.765625 94.59375 182.472656 94.652344 182.164062 94.652344 C 181.859375 94.652344 181.566406 94.59375 181.285156 94.476562 C 181.003906 94.359375 180.753906 94.195312 180.539062 93.980469 C 180.324219 93.761719 180.15625 93.515625 180.039062 93.230469 C 179.921875 92.949219 179.863281 92.65625 179.863281 92.351562 C 179.863281 92.046875 179.921875 91.753906 180.039062 91.46875 C 180.15625 91.1875 180.324219 90.9375 180.539062 90.722656 C 180.753906 90.507812 181.003906 90.339844 181.285156 90.222656 C 181.566406 90.109375 181.859375 90.050781 182.164062 90.050781 C 182.472656 90.050781 182.765625 90.109375 183.046875 90.222656 C 183.328125 90.339844 183.578125 90.507812 183.792969 90.722656 C 184.007812 90.9375 184.175781 91.1875 184.292969 91.46875 C 184.410156 91.753906 184.46875 92.046875 184.46875 92.351562 Z M 184.46875 92.351562 " fill-opacity="1" fill-rule="nonzero"/><path fill="#051d40" d="M 232.515625 73.449219 C 232.515625 73.753906 232.457031 74.050781 232.339844 74.332031 C 232.222656 74.613281 232.054688 74.863281 231.839844 75.078125 C 231.625 75.292969 231.375 75.460938 231.09375 75.578125 C 230.8125 75.695312 230.515625 75.753906 230.210938 75.753906 C 229.90625 75.753906 229.613281 75.695312 229.332031 75.578125 C 229.050781 75.460938 228.800781 75.292969 228.585938 75.078125 C 228.367188 74.863281 228.203125 74.613281 228.085938 74.332031 C 227.96875 74.050781 227.910156 73.753906 227.910156 73.449219 C 227.910156 73.144531 227.96875 72.851562 228.085938 72.570312 C 228.203125 72.289062 228.367188 72.039062 228.585938 71.824219 C 228.800781 71.605469 229.050781 71.441406 229.332031 71.324219 C 229.613281 71.207031 229.90625 71.148438 230.210938 71.148438 C 230.515625 71.148438 230.8125 71.207031 231.09375 71.324219 C 231.375 71.441406 231.625 71.605469 231.839844 71.824219 C 232.054688 72.039062 232.222656 72.289062 232.339844 72.570312 C 232.457031 72.851562 232.515625 73.144531 232.515625 73.449219 Z M 232.515625 73.449219 " fill-opacity="1" fill-rule="nonzero"/><path fill="#051d40" d="M 240.679688 81.90625 C 240.679688 82.210938 240.625 82.503906 240.507812 82.789062 C 240.390625 83.070312 240.222656 83.320312 240.007812 83.535156 C 239.792969 83.75 239.542969 83.917969 239.261719 84.035156 C 238.980469 84.148438 238.683594 84.207031 238.378906 84.207031 C 238.074219 84.207031 237.78125 84.148438 237.5 84.035156 C 237.214844 83.917969 236.96875 83.75 236.753906 83.535156 C 236.535156 83.320312 236.371094 83.070312 236.253906 82.789062 C 236.136719 82.503906 236.078125 82.210938 236.078125 81.90625 C 236.078125 81.601562 236.136719 81.308594 236.253906 81.027344 C 236.371094 80.742188 236.535156 80.496094 236.753906 80.277344 C 236.96875 80.0625 237.214844 79.898438 237.5 79.78125 C 237.78125 79.664062 238.074219 79.605469 238.378906 79.605469 C 238.683594 79.605469 238.980469 79.664062 239.261719 79.78125 C 239.542969 79.898438 239.792969 80.0625 240.007812 80.277344 C 240.222656 80.496094 240.390625 80.742188 240.507812 81.027344 C 240.625 81.308594 240.679688 81.601562 240.679688 81.90625 Z M 240.679688 81.90625 " fill-opacity="1" fill-rule="nonzero"/><path fill="#051d40" d="M 231.816406 94.652344 C 231.816406 94.957031 231.757812 95.253906 231.640625 95.535156 C 231.523438 95.816406 231.359375 96.066406 231.144531 96.28125 C 230.925781 96.496094 230.679688 96.664062 230.394531 96.78125 C 230.113281 96.898438 229.820312 96.957031 229.515625 96.957031 C 229.210938 96.957031 228.917969 96.898438 228.632812 96.78125 C 228.351562 96.664062 228.101562 96.496094 227.886719 96.28125 C 227.671875 96.066406 227.503906 95.816406 227.386719 95.535156 C 227.273438 95.253906 227.214844 94.957031 227.214844 94.652344 C 227.214844 94.347656 227.273438 94.054688 227.386719 93.773438 C 227.503906 93.492188 227.671875 93.242188 227.886719 93.027344 C 228.101562 92.808594 228.351562 92.644531 228.632812 92.527344 C 228.917969 92.410156 229.210938 92.351562 229.515625 92.351562 C 229.820312 92.351562 230.113281 92.410156 230.394531 92.527344 C 230.679688 92.644531 230.925781 92.808594 231.144531 93.027344 C 231.359375 93.242188 231.523438 93.492188 231.640625 93.773438 C 231.757812 94.054688 231.816406 94.347656 231.816406 94.652344 Z M 231.816406 94.652344 " fill-opacity="1" fill-rule="nonzero"/><path fill="#051d40" d="M 231.023438 103.300781 C 231.023438 103.605469 230.964844 103.902344 230.847656 104.183594 C 230.734375 104.464844 230.566406 104.714844 230.351562 104.929688 C 230.132812 105.144531 229.886719 105.3125 229.605469 105.429688 C 229.320312 105.546875 229.027344 105.605469 228.722656 105.605469 C 228.417969 105.605469 228.125 105.546875 227.84375 105.429688 C 227.558594 105.3125 227.3125 105.144531 227.09375 104.929688 C 226.878906 104.714844 226.710938 104.464844 226.597656 104.183594 C 226.480469 103.902344 226.421875 103.605469 226.421875 103.300781 C 226.421875 102.996094 226.480469 102.703125 226.597656 102.421875 C 226.710938 102.140625 226.878906 101.890625 227.09375 101.675781 C 227.3125 101.457031 227.558594 101.292969 227.84375 101.175781 C 228.125 101.058594 228.417969 101 228.722656 101 C 229.027344 101 229.320312 101.058594 229.605469 101.175781 C 229.886719 101.292969 230.132812 101.457031 230.351562 101.675781 C 230.566406 101.890625 230.734375 102.140625 230.847656 102.421875 C 230.964844 102.703125 231.023438 102.996094 231.023438 103.300781 Z M 231.023438 103.300781 " fill-opacity="1" fill-rule="nonzero"/><path fill="#051d40" d="M 245.285156 113.390625 C 245.285156 113.695312 245.226562 113.988281 245.109375 114.273438 C 244.992188 114.554688 244.828125 114.804688 244.613281 115.019531 C 244.394531 115.234375 244.148438 115.402344 243.863281 115.519531 C 243.582031 115.632812 243.289062 115.691406 242.984375 115.691406 C 242.679688 115.691406 242.386719 115.632812 242.101562 115.519531 C 241.820312 115.402344 241.574219 115.234375 241.355469 115.019531 C 241.140625 114.804688 240.972656 114.554688 240.859375 114.273438 C 240.742188 113.988281 240.683594 113.695312 240.683594 113.390625 C 240.683594 113.085938 240.742188 112.792969 240.859375 112.511719 C 240.972656 112.226562 241.140625 111.980469 241.355469 111.761719 C 241.574219 111.546875 241.820312 111.382812 242.101562 111.265625 C 242.386719 111.148438 242.679688 111.089844 242.984375 111.089844 C 243.289062 111.089844 243.582031 111.148438 243.863281 111.265625 C 244.148438 111.382812 244.394531 111.546875 244.613281 111.761719 C 244.828125 111.980469 244.992188 112.226562 245.109375 112.511719 C 245.226562 112.792969 245.285156 113.085938 245.285156 113.390625 Z M 245.285156 113.390625 " fill-opacity="1" fill-rule="nonzero"/><path fill="#051d40" d="M 273.589844 143.804688 C 273.589844 144.109375 273.53125 144.402344 273.414062 144.6875 C 273.296875 144.96875 273.128906 145.21875 272.914062 145.433594 C 272.699219 145.648438 272.449219 145.816406 272.167969 145.933594 C 271.886719 146.046875 271.589844 146.105469 271.285156 146.105469 C 270.980469 146.105469 270.6875 146.046875 270.40625 145.933594 C 270.125 145.816406 269.875 145.648438 269.660156 145.433594 C 269.441406 145.21875 269.277344 144.96875 269.160156 144.6875 C 269.042969 144.402344 268.984375 144.109375 268.984375 143.804688 C 268.984375 143.5 269.042969 143.207031 269.160156 142.925781 C 269.277344 142.640625 269.441406 142.394531 269.660156 142.175781 C 269.875 141.960938 270.125 141.796875 270.40625 141.679688 C 270.6875 141.5625 270.980469 141.503906 271.285156 141.503906 C 271.589844 141.503906 271.886719 141.5625 272.167969 141.679688 C 272.449219 141.796875 272.699219 141.960938 272.914062 142.175781 C 273.128906 142.394531 273.296875 142.640625 273.414062 142.925781 C 273.53125 143.207031 273.589844 143.5 273.589844 143.804688 Z M 273.589844 143.804688 " fill-opacity="1" fill-rule="nonzero"/><path fill="#051d40" d="M 278.585938 114.59375 C 278.585938 114.898438 278.527344 115.191406 278.410156 115.472656 C 278.292969 115.757812 278.125 116.003906 277.910156 116.21875 C 277.695312 116.4375 277.445312 116.601562 277.164062 116.71875 C 276.882812 116.835938 276.589844 116.894531 276.285156 116.894531 C 275.976562 116.894531 275.683594 116.835938 275.402344 116.71875 C 275.121094 116.601562 274.871094 116.4375 274.65625 116.21875 C 274.441406 116.003906 274.273438 115.757812 274.15625 115.472656 C 274.039062 115.191406 273.980469 114.898438 273.980469 114.59375 C 273.980469 114.289062 274.039062 113.992188 274.15625 113.710938 C 274.273438 113.429688 274.441406 113.179688 274.65625 112.964844 C 274.871094 112.75 275.121094 112.582031 275.402344 112.464844 C 275.683594 112.347656 275.976562 112.292969 276.285156 112.292969 C 276.589844 112.292969 276.882812 112.347656 277.164062 112.464844 C 277.445312 112.582031 277.695312 112.75 277.910156 112.964844 C 278.125 113.179688 278.292969 113.429688 278.410156 113.710938 C 278.527344 113.992188 278.585938 114.289062 278.585938 114.59375 Z M 278.585938 114.59375 " fill-opacity="1" fill-rule="nonzero"/><path fill="#051d40" d="M 265.347656 88.070312 C 265.347656 88.375 265.289062 88.667969 265.171875 88.949219 C 265.054688 89.230469 264.890625 89.480469 264.675781 89.695312 C 264.457031 89.914062 264.210938 90.078125 263.925781 90.195312 C 263.644531 90.3125 263.351562 90.371094 263.046875 90.371094 C 262.742188 90.371094 262.449219 90.3125 262.164062 90.195312 C 261.882812 90.078125 261.632812 89.914062 261.417969 89.695312 C 261.203125 89.480469 261.035156 89.230469 260.917969 88.949219 C 260.804688 88.667969 260.746094 88.375 260.746094 88.070312 C 260.746094 87.761719 260.804688 87.46875 260.917969 87.1875 C 261.035156 86.90625 261.203125 86.65625 261.417969 86.441406 C 261.632812 86.226562 261.882812 86.058594 262.164062 85.941406 C 262.449219 85.824219 262.742188 85.765625 263.046875 85.765625 C 263.351562 85.765625 263.644531 85.824219 263.925781 85.941406 C 264.210938 86.058594 264.457031 86.226562 264.675781 86.441406 C 264.890625 86.65625 265.054688 86.90625 265.171875 87.1875 C 265.289062 87.46875 265.347656 87.761719 265.347656 88.070312 Z M 265.347656 88.070312 " fill-opacity="1" fill-rule="nonzero"/><path fill="#051d40" d="M 282.261719 49.152344 C 282.261719 49.457031 282.203125 49.75 282.085938 50.03125 C 281.96875 50.3125 281.800781 50.5625 281.585938 50.777344 C 281.371094 50.996094 281.121094 51.160156 280.839844 51.277344 C 280.558594 51.394531 280.265625 51.453125 279.957031 51.453125 C 279.652344 51.453125 279.359375 51.394531 279.078125 51.277344 C 278.796875 51.160156 278.546875 50.996094 278.332031 50.777344 C 278.113281 50.5625 277.949219 50.3125 277.832031 50.03125 C 277.714844 49.75 277.65625 49.457031 277.65625 49.152344 C 277.65625 48.84375 277.714844 48.550781 277.832031 48.269531 C 277.949219 47.988281 278.113281 47.738281 278.332031 47.523438 C 278.546875 47.308594 278.796875 47.140625 279.078125 47.023438 C 279.359375 46.90625 279.652344 46.847656 279.957031 46.847656 C 280.265625 46.847656 280.558594 46.90625 280.839844 47.023438 C 281.121094 47.140625 281.371094 47.308594 281.585938 47.523438 C 281.800781 47.738281 281.96875 47.988281 282.085938 48.269531 C 282.203125 48.550781 282.261719 48.84375 282.261719 49.152344 Z M 282.261719 49.152344 " fill-opacity="1" fill-rule="nonzero"/><path fill="#051d40" d="M 307.820312 55.207031 C 307.820312 55.511719 307.761719 55.804688 307.644531 56.085938 C 307.527344 56.367188 307.363281 56.617188 307.148438 56.832031 C 306.929688 57.046875 306.683594 57.214844 306.398438 57.332031 C 306.117188 57.449219 305.824219 57.507812 305.519531 57.507812 C 305.214844 57.507812 304.921875 57.449219 304.636719 57.332031 C 304.355469 57.214844 304.105469 57.046875 303.890625 56.832031 C 303.675781 56.617188 303.507812 56.367188 303.390625 56.085938 C 303.277344 55.804688 303.21875 55.511719 303.21875 55.207031 C 303.21875 54.898438 303.277344 54.605469 303.390625 54.324219 C 303.507812 54.042969 303.675781 53.792969 303.890625 53.578125 C 304.105469 53.363281 304.355469 53.195312 304.636719 53.078125 C 304.921875 52.960938 305.214844 52.902344 305.519531 52.902344 C 305.824219 52.902344 306.117188 52.960938 306.398438 53.078125 C 306.683594 53.195312 306.929688 53.363281 307.148438 53.578125 C 307.363281 53.792969 307.527344 54.042969 307.644531 54.324219 C 307.761719 54.605469 307.820312 54.898438 307.820312 55.207031 Z M 307.820312 55.207031 " fill-opacity="1" fill-rule="nonzero"/><g clip-path="url(#9d8e0c9afc)"><path fill="#051d40" d="M 317.335938 3.125 C 317.335938 3.429688 317.277344 3.722656 317.160156 4.003906 C 317.042969 4.285156 316.875 4.535156 316.660156 4.75 C 316.445312 4.964844 316.195312 5.132812 315.914062 5.25 C 315.632812 5.367188 315.335938 5.425781 315.03125 5.425781 C 314.726562 5.425781 314.433594 5.367188 314.152344 5.25 C 313.871094 5.132812 313.621094 4.964844 313.40625 4.75 C 313.1875 4.535156 313.023438 4.285156 312.90625 4.003906 C 312.789062 3.722656 312.730469 3.429688 312.730469 3.125 C 312.730469 2.816406 312.789062 2.523438 312.90625 2.242188 C 313.023438 1.960938 313.1875 1.710938 313.40625 1.496094 C 313.621094 1.28125 313.871094 1.113281 314.152344 0.996094 C 314.433594 0.878906 314.726562 0.820312 315.03125 0.820312 C 315.335938 0.820312 315.632812 0.878906 315.914062 0.996094 C 316.195312 1.113281 316.445312 1.28125 316.660156 1.496094 C 316.875 1.710938 317.042969 1.960938 317.160156 2.242188 C 317.277344 2.523438 317.335938 2.816406 317.335938 3.125 Z M 317.335938 3.125 " fill-opacity="1" fill-rule="nonzero"/></g><path fill="#051d40" d="M 264.546875 40.964844 C 264.546875 41.269531 264.488281 41.5625 264.371094 41.847656 C 264.257812 42.128906 264.089844 42.375 263.875 42.59375 C 263.65625 42.808594 263.410156 42.976562 263.128906 43.089844 C 262.84375 43.207031 262.550781 43.265625 262.246094 43.265625 C 261.941406 43.265625 261.648438 43.207031 261.367188 43.089844 C 261.082031 42.976562 260.835938 42.808594 260.617188 42.59375 C 260.402344 42.375 260.234375 42.128906 260.121094 41.847656 C 260.003906 41.5625 259.945312 41.269531 259.945312 40.964844 C 259.945312 40.660156 260.003906 40.367188 260.121094 40.085938 C 260.234375 39.800781 260.402344 39.554688 260.617188 39.335938 C 260.835938 39.121094 261.082031 38.957031 261.367188 38.839844 C 261.648438 38.722656 261.941406 38.664062 262.246094 38.664062 C 262.550781 38.664062 262.84375 38.722656 263.128906 38.839844 C 263.410156 38.957031 263.65625 39.121094 263.875 39.335938 C 264.089844 39.554688 264.257812 39.800781 264.371094 40.085938 C 264.488281 40.367188 264.546875 40.660156 264.546875 40.964844 Z M 264.546875 40.964844 " fill-opacity="1" fill-rule="nonzero"/><path fill="#051d40" d="M 329.363281 18.433594 C 329.363281 18.738281 329.304688 19.03125 329.191406 19.3125 C 329.074219 19.597656 328.90625 19.84375 328.691406 20.0625 C 328.476562 20.277344 328.226562 20.445312 327.945312 20.558594 C 327.660156 20.675781 327.367188 20.734375 327.0625 20.734375 C 326.757812 20.734375 326.464844 20.675781 326.183594 20.558594 C 325.898438 20.445312 325.652344 20.277344 325.433594 20.0625 C 325.21875 19.84375 325.054688 19.597656 324.9375 19.3125 C 324.820312 19.03125 324.761719 18.738281 324.761719 18.433594 C 324.761719 18.128906 324.820312 17.835938 324.9375 17.550781 C 325.054688 17.269531 325.21875 17.023438 325.433594 16.804688 C 325.652344 16.589844 325.898438 16.421875 326.183594 16.308594 C 326.464844 16.191406 326.757812 16.132812 327.0625 16.132812 C 327.367188 16.132812 327.660156 16.191406 327.945312 16.308594 C 328.226562 16.421875 328.476562 16.589844 328.691406 16.804688 C 328.90625 17.023438 329.074219 17.269531 329.191406 17.550781 C 329.304688 17.835938 329.363281 18.128906 329.363281 18.433594 Z M 329.363281 18.433594 " fill-opacity="1" fill-rule="nonzero"/><path fill="#051d40" d="M 337.546875 33.015625 C 337.546875 33.324219 337.488281 33.617188 337.371094 33.898438 C 337.257812 34.179688 337.089844 34.429688 336.875 34.644531 C 336.65625 34.859375 336.410156 35.027344 336.128906 35.144531 C 335.84375 35.261719 335.550781 35.320312 335.246094 35.320312 C 334.941406 35.320312 334.648438 35.261719 334.367188 35.144531 C 334.082031 35.027344 333.835938 34.859375 333.617188 34.644531 C 333.402344 34.429688 333.234375 34.179688 333.121094 33.898438 C 333.003906 33.617188 332.945312 33.324219 332.945312 33.015625 C 332.945312 32.710938 333.003906 32.417969 333.121094 32.136719 C 333.234375 31.855469 333.402344 31.605469 333.617188 31.390625 C 333.835938 31.175781 334.082031 31.007812 334.367188 30.890625 C 334.648438 30.773438 334.941406 30.714844 335.246094 30.714844 C 335.550781 30.714844 335.84375 30.773438 336.128906 30.890625 C 336.410156 31.007812 336.65625 31.175781 336.875 31.390625 C 337.089844 31.605469 337.257812 31.855469 337.371094 32.136719 C 337.488281 32.417969 337.546875 32.710938 337.546875 33.015625 Z M 337.546875 33.015625 " fill-opacity="1" fill-rule="nonzero"/><path fill="#051d40" d="M 361.269531 92.351562 C 361.269531 92.65625 361.210938 92.949219 361.09375 93.230469 C 360.976562 93.515625 360.808594 93.761719 360.59375 93.980469 C 360.378906 94.195312 360.128906 94.359375 359.847656 94.476562 C 359.566406 94.59375 359.269531 94.652344 358.964844 94.652344 C 358.660156 94.652344 358.367188 94.59375 358.085938 94.476562 C 357.804688 94.359375 357.554688 94.195312 357.339844 93.980469 C 357.121094 93.761719 356.957031 93.515625 356.839844 93.230469 C 356.722656 92.949219 356.664062 92.65625 356.664062 92.351562 C 356.664062 92.046875 356.722656 91.753906 356.839844 91.46875 C 356.957031 91.1875 357.121094 90.9375 357.339844 90.722656 C 357.554688 90.507812 357.804688 90.339844 358.085938 90.222656 C 358.367188 90.109375 358.660156 90.050781 358.964844 90.050781 C 359.269531 90.050781 359.566406 90.109375 359.847656 90.222656 C 360.128906 90.339844 360.378906 90.507812 360.59375 90.722656 C 360.808594 90.9375 360.976562 91.1875 361.09375 91.46875 C 361.210938 91.753906 361.269531 92.046875 361.269531 92.351562 Z M 361.269531 92.351562 " fill-opacity="1" fill-rule="nonzero"/><path fill="#051d40" d="M 325.90625 92.351562 C 325.90625 92.65625 325.847656 92.949219 325.730469 93.230469 C 325.613281 93.515625 325.449219 93.761719 325.230469 93.980469 C 325.015625 94.195312 324.765625 94.359375 324.484375 94.476562 C 324.203125 94.59375 323.910156 94.652344 323.605469 94.652344 C 323.300781 94.652344 323.003906 94.59375 322.722656 94.476562 C 322.441406 94.359375 322.191406 94.195312 321.976562 93.980469 C 321.761719 93.761719 321.59375 93.515625 321.476562 93.230469 C 321.359375 92.949219 321.300781 92.65625 321.300781 92.351562 C 321.300781 92.046875 321.359375 91.753906 321.476562 91.46875 C 321.59375 91.1875 321.761719 90.9375 321.976562 90.722656 C 322.191406 90.507812 322.441406 90.339844 322.722656 90.222656 C 323.003906 90.109375 323.300781 90.050781 323.605469 90.050781 C 323.910156 90.050781 324.203125 90.109375 324.484375 90.222656 C 324.765625 90.339844 325.015625 90.507812 325.230469 90.722656 C 325.449219 90.9375 325.613281 91.1875 325.730469 91.46875 C 325.847656 91.753906 325.90625 92.046875 325.90625 92.351562 Z M 325.90625 92.351562 " fill-opacity="1" fill-rule="nonzero"/><path fill="#051d40" d="M 293.8125 81.011719 C 293.8125 81.316406 293.753906 81.613281 293.636719 81.894531 C 293.519531 82.175781 293.351562 82.425781 293.136719 82.640625 C 292.921875 82.855469 292.671875 83.023438 292.390625 83.140625 C 292.109375 83.257812 291.8125 83.316406 291.507812 83.316406 C 291.203125 83.316406 290.910156 83.257812 290.628906 83.140625 C 290.347656 83.023438 290.097656 82.855469 289.882812 82.640625 C 289.664062 82.425781 289.5 82.175781 289.382812 81.894531 C 289.265625 81.613281 289.207031 81.316406 289.207031 81.011719 C 289.207031 80.707031 289.265625 80.414062 289.382812 80.132812 C 289.5 79.851562 289.664062 79.601562 289.882812 79.386719 C 290.097656 79.167969 290.347656 79.003906 290.628906 78.886719 C 290.910156 78.769531 291.203125 78.710938 291.507812 78.710938 C 291.8125 78.710938 292.109375 78.769531 292.390625 78.886719 C 292.671875 79.003906 292.921875 79.167969 293.136719 79.386719 C 293.351562 79.601562 293.519531 79.851562 293.636719 80.132812 C 293.753906 80.414062 293.8125 80.707031 293.8125 81.011719 Z M 293.8125 81.011719 " fill-opacity="1" fill-rule="nonzero"/><path fill="#051d40" d="M 326.96875 139.203125 C 326.96875 139.507812 326.910156 139.800781 326.792969 140.082031 C 326.675781 140.363281 326.507812 140.613281 326.292969 140.828125 C 326.078125 141.042969 325.828125 141.210938 325.546875 141.328125 C 325.265625 141.445312 324.96875 141.503906 324.664062 141.503906 C 324.359375 141.503906 324.066406 141.445312 323.785156 141.328125 C 323.503906 141.210938 323.253906 141.042969 323.039062 140.828125 C 322.820312 140.613281 322.65625 140.363281 322.539062 140.082031 C 322.421875 139.800781 322.363281 139.507812 322.363281 139.203125 C 322.363281 138.894531 322.421875 138.601562 322.539062 138.320312 C 322.65625 138.039062 322.820312 137.789062 323.039062 137.574219 C 323.253906 137.359375 323.503906 137.191406 323.785156 137.074219 C 324.066406 136.957031 324.359375 136.898438 324.664062 136.898438 C 324.96875 136.898438 325.265625 136.957031 325.546875 137.074219 C 325.828125 137.191406 326.078125 137.359375 326.292969 137.574219 C 326.507812 137.789062 326.675781 138.039062 326.792969 138.320312 C 326.910156 138.601562 326.96875 138.894531 326.96875 139.203125 Z M 326.96875 139.203125 " fill-opacity="1" fill-rule="nonzero"/><path fill="#051d40" d="M 312.839844 115.003906 C 312.839844 115.308594 312.78125 115.601562 312.667969 115.882812 C 312.550781 116.164062 312.382812 116.414062 312.167969 116.628906 C 311.953125 116.847656 311.703125 117.011719 311.421875 117.128906 C 311.136719 117.246094 310.84375 117.304688 310.539062 117.304688 C 310.234375 117.304688 309.941406 117.246094 309.660156 117.128906 C 309.375 117.011719 309.128906 116.847656 308.910156 116.628906 C 308.695312 116.414062 308.53125 116.164062 308.414062 115.882812 C 308.296875 115.601562 308.238281 115.308594 308.238281 115.003906 C 308.238281 114.699219 308.296875 114.402344 308.414062 114.121094 C 308.53125 113.839844 308.695312 113.589844 308.910156 113.375 C 309.128906 113.160156 309.375 112.992188 309.660156 112.875 C 309.941406 112.757812 310.234375 112.703125 310.539062 112.703125 C 310.84375 112.703125 311.136719 112.757812 311.421875 112.875 C 311.703125 112.992188 311.953125 113.160156 312.167969 113.375 C 312.382812 113.589844 312.550781 113.839844 312.667969 114.121094 C 312.78125 114.402344 312.839844 114.699219 312.839844 115.003906 Z M 312.839844 115.003906 " fill-opacity="1" fill-rule="nonzero"/><path fill="#051d40" d="M 312.839844 162.285156 C 312.839844 162.589844 312.78125 162.882812 312.667969 163.164062 C 312.550781 163.445312 312.382812 163.695312 312.167969 163.910156 C 311.953125 164.128906 311.703125 164.292969 311.421875 164.410156 C 311.136719 164.527344 310.84375 164.585938 310.539062 164.585938 C 310.234375 164.585938 309.941406 164.527344 309.660156 164.410156 C 309.375 164.292969 309.128906 164.128906 308.910156 163.910156 C 308.695312 163.695312 308.53125 163.445312 308.414062 163.164062 C 308.296875 162.882812 308.238281 162.589844 308.238281 162.285156 C 308.238281 161.980469 308.296875 161.683594 308.414062 161.402344 C 308.53125 161.121094 308.695312 160.871094 308.910156 160.65625 C 309.128906 160.441406 309.375 160.273438 309.660156 160.15625 C 309.941406 160.039062 310.234375 159.980469 310.539062 159.980469 C 310.84375 159.980469 311.136719 160.039062 311.421875 160.15625 C 311.703125 160.273438 311.953125 160.441406 312.167969 160.65625 C 312.382812 160.871094 312.550781 161.121094 312.667969 161.402344 C 312.78125 161.683594 312.839844 161.980469 312.839844 162.285156 Z M 312.839844 162.285156 " fill-opacity="1" fill-rule="nonzero"/><g clip-path="url(#d4d4952fd3)"><path fill="#051d40" d="M 373.230469 158.824219 C 373.230469 159.128906 373.171875 159.425781 373.054688 159.707031 C 372.9375 159.988281 372.773438 160.238281 372.558594 160.453125 C 372.339844 160.667969 372.09375 160.835938 371.808594 160.953125 C 371.527344 161.070312 371.234375 161.125 370.929688 161.125 C 370.625 161.125 370.332031 161.070312 370.046875 160.953125 C 369.765625 160.835938 369.515625 160.667969 369.300781 160.453125 C 369.085938 160.238281 368.917969 159.988281 368.800781 159.707031 C 368.6875 159.425781 368.628906 159.128906 368.628906 158.824219 C 368.628906 158.519531 368.6875 158.226562 368.800781 157.945312 C 368.917969 157.660156 369.085938 157.414062 369.300781 157.199219 C 369.515625 156.980469 369.765625 156.816406 370.046875 156.699219 C 370.332031 156.582031 370.625 156.523438 370.929688 156.523438 C 371.234375 156.523438 371.527344 156.582031 371.808594 156.699219 C 372.09375 156.816406 372.339844 156.980469 372.558594 157.199219 C 372.773438 157.414062 372.9375 157.660156 373.054688 157.945312 C 373.171875 158.226562 373.230469 158.519531 373.230469 158.824219 Z M 373.230469 158.824219 " fill-opacity="1" fill-rule="nonzero"/></g><g clip-path="url(#83b2a14d95)"><path fill="#051d40" d="M 343.035156 3.097656 C 343.035156 3.402344 342.976562 3.695312 342.859375 3.976562 C 342.742188 4.257812 342.574219 4.507812 342.359375 4.722656 C 342.144531 4.941406 341.894531 5.105469 341.613281 5.222656 C 341.332031 5.339844 341.035156 5.398438 340.730469 5.398438 C 340.425781 5.398438 340.132812 5.339844 339.851562 5.222656 C 339.570312 5.105469 339.320312 4.941406 339.105469 4.722656 C 338.886719 4.507812 338.722656 4.257812 338.605469 3.976562 C 338.488281 3.695312 338.429688 3.402344 338.429688 3.097656 C 338.429688 2.789062 338.488281 2.496094 338.605469 2.214844 C 338.722656 1.933594 338.886719 1.683594 339.105469 1.46875 C 339.320312 1.253906 339.570312 1.085938 339.851562 0.96875 C 340.132812 0.851562 340.425781 0.792969 340.730469 0.792969 C 341.035156 0.792969 341.332031 0.851562 341.613281 0.96875 C 341.894531 1.085938 342.144531 1.253906 342.359375 1.46875 C 342.574219 1.683594 342.742188 1.933594 342.859375 2.214844 C 342.976562 2.496094 343.035156 2.789062 343.035156 3.097656 Z M 343.035156 3.097656 " fill-opacity="1" fill-rule="nonzero"/></g><path fill="#051d40" d="M 362.710938 13.777344 C 362.710938 14.082031 362.652344 14.375 362.535156 14.65625 C 362.417969 14.9375 362.25 15.1875 362.035156 15.402344 C 361.820312 15.617188 361.570312 15.785156 361.289062 15.902344 C 361.007812 16.019531 360.710938 16.078125 360.40625 16.078125 C 360.101562 16.078125 359.808594 16.019531 359.527344 15.902344 C 359.246094 15.785156 358.996094 15.617188 358.78125 15.402344 C 358.5625 15.1875 358.398438 14.9375 358.28125 14.65625 C 358.164062 14.375 358.105469 14.082031 358.105469 13.777344 C 358.105469 13.46875 358.164062 13.175781 358.28125 12.894531 C 358.398438 12.613281 358.5625 12.363281 358.78125 12.148438 C 358.996094 11.933594 359.246094 11.765625 359.527344 11.648438 C 359.808594 11.53125 360.101562 11.472656 360.40625 11.472656 C 360.710938 11.472656 361.007812 11.53125 361.289062 11.648438 C 361.570312 11.765625 361.820312 11.933594 362.035156 12.148438 C 362.25 12.363281 362.417969 12.613281 362.535156 12.894531 C 362.652344 13.175781 362.710938 13.46875 362.710938 13.777344 Z M 362.710938 13.777344 " fill-opacity="1" fill-rule="nonzero"/><path fill="#051d40" d="M 201.980469 106.402344 C 201.980469 106.707031 201.921875 107 201.804688 107.28125 C 201.6875 107.5625 201.523438 107.8125 201.304688 108.027344 C 201.089844 108.246094 200.839844 108.410156 200.558594 108.527344 C 200.277344 108.644531 199.984375 108.703125 199.679688 108.703125 C 199.375 108.703125 199.078125 108.644531 198.796875 108.527344 C 198.515625 108.410156 198.265625 108.246094 198.050781 108.027344 C 197.835938 107.8125 197.667969 107.5625 197.550781 107.28125 C 197.433594 107 197.375 106.707031 197.375 106.402344 C 197.375 106.09375 197.433594 105.800781 197.550781 105.519531 C 197.667969 105.238281 197.835938 104.988281 198.050781 104.773438 C 198.265625 104.558594 198.515625 104.390625 198.796875 104.273438 C 199.078125 104.15625 199.375 104.097656 199.679688 104.097656 C 199.984375 104.097656 200.277344 104.15625 200.558594 104.273438 C 200.839844 104.390625 201.089844 104.558594 201.304688 104.773438 C 201.523438 104.988281 201.6875 105.238281 201.804688 105.519531 C 201.921875 105.800781 201.980469 106.09375 201.980469 106.402344 Z M 201.980469 106.402344 " fill-opacity="1" fill-rule="nonzero"/><path fill="#051d40" d="M 45.558594 158.980469 L 17.308594 148.136719 L 17.402344 147.894531 L 45.488281 158.671875 L 81.328125 120.898438 L 81.417969 120.945312 L 98.753906 130.609375 L 89.902344 86.210938 L 36.65625 105.214844 L 72.527344 65.628906 L 36.890625 62.652344 L 63.675781 15.382812 L 63.90625 15.511719 L 37.320312 62.425781 L 73.078125 65.410156 L 37.550781 104.617188 L 90.101562 85.859375 L 98.996094 130.480469 L 123.226562 85.75 L 123.3125 85.757812 L 182.609375 92.265625 L 143.289062 112.871094 L 143.222656 112.769531 L 131.933594 94.867188 L 99.046875 130.9375 L 98.882812 131.242188 L 98.824219 130.945312 L 81.378906 121.222656 Z M 123.371094 86.03125 L 99.566406 129.980469 L 131.972656 94.4375 L 132.0625 94.582031 L 143.378906 112.527344 L 181.722656 92.433594 Z M 123.371094 86.03125 " fill-opacity="1" fill-rule="nonzero"/><path fill="#051d40" d="M 81.445312 121.234375 L 81.308594 121.183594 L 37.03125 105.027344 L 37.007812 105.007812 L 11.589844 77.898438 L 11.78125 77.722656 L 37.179688 104.804688 L 81.261719 120.886719 L 89.894531 85.933594 L 89.957031 85.910156 L 119.382812 75.339844 L 123.421875 85.84375 L 123.175781 85.9375 L 119.230469 75.675781 L 90.113281 86.132812 Z M 81.445312 121.234375 " fill-opacity="1" fill-rule="nonzero"/><path fill="#051d40" d="M 88.847656 44.914062 L 103.695312 44.914062 L 103.695312 45.179688 L 88.847656 45.179688 Z M 88.847656 44.914062 " fill-opacity="1" fill-rule="nonzero"/><path fill="#051d40" d="M 114.957031 60.363281 L 115.210938 60.304688 L 118.816406 75.34375 L 118.5625 75.402344 Z M 114.957031 60.363281 " fill-opacity="1" fill-rule="nonzero"/><path fill="#051d40" d="M 10.234375 189 L 10.0625 188.800781 L 44.675781 158.773438 L 36.972656 104.925781 L 36.972656 62.609375 L 9.871094 44.207031 L 10.101562 44.113281 L 58.335938 24.632812 L 58.433594 24.878906 L 10.425781 44.265625 L 37.234375 62.472656 L 37.234375 104.90625 L 44.953125 158.878906 Z M 10.234375 189 " fill-opacity="1" fill-rule="nonzero"/><path fill="#051d40" d="M 2.414062 141.578125 L 37.015625 104.828125 L 37.207031 105.007812 L 2.605469 141.757812 Z M 2.414062 141.578125 " fill-opacity="1" fill-rule="nonzero"/><path fill="#051d40" d="M 276.402344 115.15625 L 182.132812 92.480469 L 182.171875 92.21875 L 229.460938 94.835938 L 238.410156 81.703125 L 238.496094 81.726562 L 262.894531 88.085938 L 279.902344 48.835938 L 305.605469 55.191406 L 334.765625 33.066406 L 340.578125 3.070312 L 340.835938 3.121094 L 335.078125 32.828125 L 360.328125 13.671875 L 360.484375 13.878906 L 335.003906 33.210938 L 323.507812 92.527344 L 323.367188 92.472656 L 291.769531 81.058594 Z M 183.601562 92.5625 L 276.25 114.851562 L 291.632812 80.730469 L 291.746094 80.769531 L 323.3125 92.175781 L 334.691406 33.449219 L 305.664062 55.476562 L 280.054688 49.144531 L 263.042969 88.394531 L 262.933594 88.367188 L 238.519531 82.003906 L 229.59375 95.105469 L 229.519531 95.101562 Z M 183.601562 92.5625 " fill-opacity="1" fill-rule="nonzero"/><path fill="#051d40" d="M 271.234375 143.941406 L 271.191406 143.894531 L 243.011719 113.109375 L 199.398438 106.578125 L 199.371094 106.554688 L 181.910156 92.3125 L 182.117188 92.230469 L 230.242188 73.257812 L 229.324219 103.785156 L 229.207031 103.796875 L 200.535156 106.484375 L 243.144531 112.867188 L 243.175781 112.902344 L 271.339844 143.671875 L 324.496094 139.578125 L 358.707031 92.480469 L 323.328125 92.480469 L 323.292969 92.410156 L 305.5 55.351562 L 305.503906 55.3125 L 314.632812 3.074219 L 314.890625 3.117188 L 305.769531 55.316406 L 323.492188 92.21875 L 359.222656 92.21875 L 324.632812 139.828125 L 324.574219 139.832031 Z M 182.421875 92.390625 L 199.492188 106.320312 L 229.066406 103.546875 L 229.96875 73.644531 Z M 182.421875 92.390625 " fill-opacity="1" fill-rule="nonzero"/><path fill="#051d40" d="M 370.878906 158.945312 L 324.472656 139.804688 L 324.449219 139.765625 L 291.582031 80.949219 L 291.578125 80.9375 L 279.855469 49.035156 L 280.101562 48.945312 L 291.820312 80.839844 L 324.65625 139.597656 L 370.980469 158.703125 Z M 370.878906 158.945312 " fill-opacity="1" fill-rule="nonzero"/><path fill="#051d40" d="M 309.902344 162.402344 L 271.140625 143.878906 L 271.15625 143.78125 L 276.199219 114.980469 L 276.453125 115.023438 L 271.433594 143.730469 L 310.015625 162.167969 Z M 309.902344 162.402344 " fill-opacity="1" fill-rule="nonzero"/><path fill="#051d40" d="M 271.363281 143.910156 L 271.210938 143.699219 L 310.660156 114.914062 L 323.296875 92.289062 L 323.527344 92.414062 L 310.863281 115.089844 L 310.839844 115.109375 Z M 271.363281 143.910156 " fill-opacity="1" fill-rule="nonzero"/><path fill="#051d40" d="M 230.199219 73.542969 L 230.011719 73.359375 L 262.03125 40.804688 L 262.0625 40.796875 L 327.019531 18.308594 L 327.105469 18.558594 L 262.175781 41.035156 Z M 230.199219 73.542969 " fill-opacity="1" fill-rule="nonzero"/></g></g></g></g><g fill="#e46a1e" fill-opacity="1"><g transform="translate(21.655096, 102.924973)"><g><path d="M 23.9375 -18.421875 C 25.71875 -17.773438 27.171875 -16.722656 28.296875 -15.265625 C 29.429688 -13.816406 30 -11.976562 30 -9.75 C 30 -7.769531 29.535156 -6.039062 28.609375 -4.5625 C 27.679688 -3.09375 26.4375 -1.960938 24.875 -1.171875 C 23.320312 -0.390625 21.578125 0 19.640625 0 L 4 0 L 4 -36.359375 L 18.296875 -36.359375 C 20.242188 -36.359375 22.003906 -35.953125 23.578125 -35.140625 C 25.148438 -34.335938 26.410156 -33.195312 27.359375 -31.71875 C 28.304688 -30.25 28.78125 -28.503906 28.78125 -26.484375 C 28.78125 -24.546875 28.347656 -22.898438 27.484375 -21.546875 C 26.617188 -20.191406 25.4375 -19.148438 23.9375 -18.421875 Z M 22.84375 -25.875 C 22.84375 -27.332031 22.328125 -28.523438 21.296875 -29.453125 C 20.265625 -30.378906 19.046875 -30.84375 17.640625 -30.84375 L 9.875 -30.84375 L 9.875 -20.78125 L 17.640625 -20.78125 C 19.046875 -20.78125 20.265625 -21.273438 21.296875 -22.265625 C 22.328125 -23.253906 22.84375 -24.457031 22.84375 -25.875 Z M 18.78125 -5.515625 C 20.238281 -5.515625 21.484375 -5.988281 22.515625 -6.9375 C 23.546875 -7.882812 24.0625 -9.066406 24.0625 -10.484375 C 24.0625 -11.898438 23.546875 -13.101562 22.515625 -14.09375 C 21.484375 -15.082031 20.238281 -15.578125 18.78125 -15.578125 L 9.875 -15.578125 L 9.875 -5.515625 Z M 18.78125 -5.515625 "/></g></g></g><g fill="#e46a1e" fill-opacity="1"><g transform="translate(53.958905, 102.924973)"><g><path d="M 7.15625 -28.546875 C 6.21875 -28.546875 5.40625 -28.890625 4.71875 -29.578125 C 4.039062 -30.265625 3.703125 -31.050781 3.703125 -31.9375 C 3.703125 -32.90625 4.039062 -33.722656 4.71875 -34.390625 C 5.40625 -35.054688 6.21875 -35.390625 7.15625 -35.390625 C 8.082031 -35.390625 8.890625 -35.054688 9.578125 -34.390625 C 10.265625 -33.722656 10.609375 -32.90625 10.609375 -31.9375 C 10.609375 -31.050781 10.265625 -30.265625 9.578125 -29.578125 C 8.890625 -28.890625 8.082031 -28.546875 7.15625 -28.546875 Z M 4.296875 0 L 4.296875 -24.25 L 10 -24.25 L 10 0 Z M 4.296875 0 "/></g></g></g><g fill="#e46a1e" fill-opacity="1"><g transform="translate(68.262278, 102.924973)"><g><path d="M 15.328125 0.484375 C 12.828125 0.484375 10.597656 -0.0664062 8.640625 -1.171875 C 6.679688 -2.285156 5.132812 -3.800781 4 -5.71875 C 2.863281 -7.644531 2.296875 -9.78125 2.296875 -12.125 C 2.296875 -14.507812 2.863281 -16.648438 4 -18.546875 C 5.132812 -20.441406 6.679688 -21.945312 8.640625 -23.0625 C 10.597656 -24.175781 12.828125 -24.734375 15.328125 -24.734375 C 17.835938 -24.734375 20.070312 -24.175781 22.03125 -23.0625 C 23.988281 -21.945312 25.53125 -20.441406 26.65625 -18.546875 C 27.789062 -16.648438 28.359375 -14.507812 28.359375 -12.125 C 28.359375 -9.78125 27.789062 -7.644531 26.65625 -5.71875 C 25.53125 -3.800781 23.988281 -2.285156 22.03125 -1.171875 C 20.070312 -0.0664062 17.835938 0.484375 15.328125 0.484375 Z M 15.328125 -4.84375 C 16.703125 -4.84375 17.9375 -5.164062 19.03125 -5.8125 C 20.125 -6.457031 20.992188 -7.335938 21.640625 -8.453125 C 22.285156 -9.566406 22.609375 -10.789062 22.609375 -12.125 C 22.609375 -13.5 22.285156 -14.726562 21.640625 -15.8125 C 20.992188 -16.90625 20.125 -17.773438 19.03125 -18.421875 C 17.9375 -19.066406 16.703125 -19.390625 15.328125 -19.390625 C 13.273438 -19.390625 11.550781 -18.679688 10.15625 -17.265625 C 8.757812 -15.859375 8.0625 -14.144531 8.0625 -12.125 C 8.0625 -10.101562 8.757812 -8.382812 10.15625 -6.96875 C 11.550781 -5.550781 13.273438 -4.84375 15.328125 -4.84375 Z M 15.328125 -4.84375 "/></g></g></g><g fill="#7e0000" fill-opacity="1"><g transform="translate(98.944226, 102.924973)"><g/></g></g><g fill="#000000" fill-opacity="1"><g transform="translate(113.491625, 102.924973)"><g><path d="M 30.125 -36.359375 L 36 -36.359375 L 36 0 L 30.0625 0 L 9.9375 -27.03125 L 9.9375 0 L 4 0 L 4 -36.359375 L 9.9375 -36.359375 L 30.125 -9.390625 Z M 30.125 -36.359375 "/></g></g></g><g fill="#000000" fill-opacity="1"><g transform="translate(153.492589, 102.924973)"><g><path d="M 28.0625 -12.25 L 28 -11.21875 L 8.125 -11.21875 C 8.28125 -9.195312 9.015625 -7.535156 10.328125 -6.234375 C 11.640625 -4.941406 13.304688 -4.296875 15.328125 -4.296875 C 16.867188 -4.296875 18.210938 -4.679688 19.359375 -5.453125 C 20.515625 -6.222656 21.351562 -7.234375 21.875 -8.484375 L 27.640625 -8.484375 C 26.953125 -5.859375 25.503906 -3.707031 23.296875 -2.03125 C 21.097656 -0.351562 18.441406 0.484375 15.328125 0.484375 C 12.828125 0.484375 10.597656 -0.0546875 8.640625 -1.140625 C 6.679688 -2.234375 5.132812 -3.726562 4 -5.625 C 2.863281 -7.53125 2.296875 -9.695312 2.296875 -12.125 C 2.296875 -14.539062 2.863281 -16.695312 4 -18.59375 C 5.132812 -20.5 6.679688 -22 8.640625 -23.09375 C 10.597656 -24.1875 12.804688 -24.734375 15.265625 -24.734375 C 17.734375 -24.734375 19.914062 -24.195312 21.8125 -23.125 C 23.71875 -22.050781 25.222656 -20.570312 26.328125 -18.6875 C 27.441406 -16.8125 28.019531 -14.664062 28.0625 -12.25 Z M 15.328125 -19.875 C 13.710938 -19.875 12.328125 -19.457031 11.171875 -18.625 C 10.023438 -17.800781 9.171875 -16.703125 8.609375 -15.328125 L 21.75 -15.328125 C 21.226562 -16.742188 20.421875 -17.851562 19.328125 -18.65625 C 18.242188 -19.46875 16.910156 -19.875 15.328125 -19.875 Z M 15.328125 -19.875 "/></g></g></g><g fill="#000000" fill-opacity="1"><g transform="translate(183.675129, 102.924973)"><g><path d="M 13.515625 0.484375 C 10.328125 0.484375 7.832031 -0.363281 6.03125 -2.0625 C 4.226562 -3.757812 3.328125 -6.0625 3.328125 -8.96875 L 3.328125 -24.25 L 9.03125 -24.25 L 9.03125 -9.703125 C 9.03125 -8.203125 9.453125 -7.015625 10.296875 -6.140625 C 11.148438 -5.273438 12.222656 -4.84375 13.515625 -4.84375 C 14.804688 -4.84375 15.875 -5.273438 16.71875 -6.140625 C 17.570312 -7.015625 18 -8.203125 18 -9.703125 L 18 -24.25 L 23.703125 -24.25 L 23.703125 -8.96875 C 23.703125 -6.0625 22.800781 -3.757812 21 -2.0625 C 19.195312 -0.363281 16.703125 0.484375 13.515625 0.484375 Z M 13.515625 0.484375 "/></g></g></g><g fill="#000000" fill-opacity="1"><g transform="translate(210.706084, 102.924973)"><g><path d="M 17.21875 -24.734375 C 17.90625 -24.734375 18.550781 -24.671875 19.15625 -24.546875 L 19.15625 -19.15625 C 18.875 -19.226562 18.5625 -19.285156 18.21875 -19.328125 C 17.875 -19.367188 17.5 -19.390625 17.09375 -19.390625 C 14.988281 -19.390625 13.238281 -18.742188 11.84375 -17.453125 C 10.445312 -16.160156 9.75 -14.441406 9.75 -12.296875 L 9.75 0 L 4 0 L 4 -24.25 L 9.75 -24.25 L 9.75 -20.90625 C 10.601562 -22.082031 11.664062 -23.015625 12.9375 -23.703125 C 14.207031 -24.390625 15.632812 -24.734375 17.21875 -24.734375 Z M 17.21875 -24.734375 "/></g></g></g><g fill="#000000" fill-opacity="1"><g transform="translate(229.91867, 102.924973)"><g><path d="M 30.421875 -4.734375 L 31.75 -4.734375 L 31.75 0 C 31.1875 0.320312 30.539062 0.484375 29.8125 0.484375 C 28.320312 0.484375 27.007812 0.113281 25.875 -0.625 C 24.75 -1.375 23.878906 -2.359375 23.265625 -3.578125 C 22.253906 -2.328125 21 -1.335938 19.5 -0.609375 C 18.007812 0.117188 16.378906 0.484375 14.609375 0.484375 C 12.347656 0.484375 10.273438 -0.078125 8.390625 -1.203125 C 6.515625 -2.335938 5.03125 -3.851562 3.9375 -5.75 C 2.84375 -7.65625 2.296875 -9.78125 2.296875 -12.125 C 2.296875 -14.46875 2.84375 -16.585938 3.9375 -18.484375 C 5.03125 -20.378906 6.515625 -21.894531 8.390625 -23.03125 C 10.273438 -24.164062 12.347656 -24.734375 14.609375 -24.734375 C 16.140625 -24.734375 17.570312 -24.457031 18.90625 -23.90625 C 20.238281 -23.363281 21.410156 -22.628906 22.421875 -21.703125 L 22.421875 -24.25 L 28.1875 -24.25 L 28.1875 -7.453125 C 28.1875 -6.398438 28.414062 -5.679688 28.875 -5.296875 C 29.34375 -4.921875 29.859375 -4.734375 30.421875 -4.734375 Z M 15.328125 -4.84375 C 16.660156 -4.84375 17.882812 -5.164062 19 -5.8125 C 20.113281 -6.457031 20.992188 -7.335938 21.640625 -8.453125 C 22.285156 -9.566406 22.609375 -10.789062 22.609375 -12.125 C 22.609375 -13.5 22.285156 -14.726562 21.640625 -15.8125 C 20.992188 -16.90625 20.113281 -17.773438 19 -18.421875 C 17.882812 -19.066406 16.660156 -19.390625 15.328125 -19.390625 C 13.992188 -19.390625 12.769531 -19.066406 11.65625 -18.421875 C 10.550781 -17.773438 9.675781 -16.90625 9.03125 -15.8125 C 8.382812 -14.726562 8.0625 -13.5 8.0625 -12.125 C 8.0625 -10.789062 8.382812 -9.566406 9.03125 -8.453125 C 9.675781 -7.335938 10.550781 -6.457031 11.65625 -5.8125 C 12.769531 -5.164062 13.992188 -4.84375 15.328125 -4.84375 Z M 15.328125 -4.84375 "/></g></g></g><g fill="#000000" fill-opacity="1"><g transform="translate(262.525512, 102.924973)"><g><path d="M 4 0 L 4 -43.15625 L 9.75 -43.15625 L 9.75 0 Z M 4 0 "/></g></g></g><g fill="#000000" fill-opacity="1"><g transform="translate(276.283425, 102.924973)"><g><path d="M 30.125 -36.359375 L 36 -36.359375 L 36 0 L 30.0625 0 L 9.9375 -27.03125 L 9.9375 0 L 4 0 L 4 -36.359375 L 9.9375 -36.359375 L 30.125 -9.390625 Z M 30.125 -36.359375 "/></g></g></g><g fill="#000000" fill-opacity="1"><g transform="translate(316.284389, 102.924973)"><g><path d="M 28.0625 -12.25 L 28 -11.21875 L 8.125 -11.21875 C 8.28125 -9.195312 9.015625 -7.535156 10.328125 -6.234375 C 11.640625 -4.941406 13.304688 -4.296875 15.328125 -4.296875 C 16.867188 -4.296875 18.210938 -4.679688 19.359375 -5.453125 C 20.515625 -6.222656 21.351562 -7.234375 21.875 -8.484375 L 27.640625 -8.484375 C 26.953125 -5.859375 25.503906 -3.707031 23.296875 -2.03125 C 21.097656 -0.351562 18.441406 0.484375 15.328125 0.484375 C 12.828125 0.484375 10.597656 -0.0546875 8.640625 -1.140625 C 6.679688 -2.234375 5.132812 -3.726562 4 -5.625 C 2.863281 -7.53125 2.296875 -9.695312 2.296875 -12.125 C 2.296875 -14.539062 2.863281 -16.695312 4 -18.59375 C 5.132812 -20.5 6.679688 -22 8.640625 -23.09375 C 10.597656 -24.1875 12.804688 -24.734375 15.265625 -24.734375 C 17.734375 -24.734375 19.914062 -24.195312 21.8125 -23.125 C 23.71875 -22.050781 25.222656 -20.570312 26.328125 -18.6875 C 27.441406 -16.8125 28.019531 -14.664062 28.0625 -12.25 Z M 15.328125 -19.875 C 13.710938 -19.875 12.328125 -19.457031 11.171875 -18.625 C 10.023438 -17.800781 9.171875 -16.703125 8.609375 -15.328125 L 21.75 -15.328125 C 21.226562 -16.742188 20.421875 -17.851562 19.328125 -18.65625 C 18.242188 -19.46875 16.910156 -19.875 15.328125 -19.875 Z M 15.328125 -19.875 "/></g></g></g><g fill="#000000" fill-opacity="1"><g transform="translate(346.466929, 102.924973)"><g><path d="M 16.84375 -19.390625 L 10.734375 -19.390625 L 10.734375 -8.1875 C 10.734375 -7.132812 11.046875 -6.296875 11.671875 -5.671875 C 12.296875 -5.046875 13.050781 -4.734375 13.9375 -4.734375 L 16.734375 -4.734375 L 16.734375 -0.296875 C 16.441406 -0.0976562 15.953125 0.078125 15.265625 0.234375 C 14.585938 0.398438 13.90625 0.484375 13.21875 0.484375 C 11.757812 0.484375 10.398438 0.128906 9.140625 -0.578125 C 7.890625 -1.285156 6.878906 -2.242188 6.109375 -3.453125 C 5.347656 -4.660156 4.96875 -6.015625 4.96875 -7.515625 L 4.96875 -19.390625 L 0.96875 -19.390625 L 0.96875 -24.25 L 4.96875 -24.25 L 4.96875 -34.1875 L 10.734375 -34.1875 L 10.734375 -24.25 L 16.84375 -24.25 Z M 16.84375 -19.390625 "/></g></g></g></svg>
